999
dxfrw 0.6.3
  0
SECTION
  2
HEADER
  9
$ACADVER
  1
AC1021
  9
$DWGCODEPAGE
  3
ANSI_1252
  9
$INSBASE
 10
0
 20
0
 30
0
  9
$EXTMIN
 10
0
 20
-115
 30
0
  9
$EXTMAX
 10
360
 20
120
 30
0
  9
$LIMMIN
 10
0
 20
0
  9
$LIMMAX
 10
420
 20
297
  9
$ORTHOMODE
 70
    0
  9
$REGENMODE
 70
    1
  9
$FILLMODE
 70
    1
  9
$QTEXTMODE
 70
    0
  9
$MIRRTEXT
 70
    0
  9
$LTSCALE
 40
1
  9
$ATTMODE
 70
    0
  9
$TEXTSIZE
 40
2.5
  9
$TRACEWID
 40
15.68
  9
$TEXTSTYLE
  7
STANDARD
  9
$CLAYER
  8
0
  9
$CELTYPE
  6
BYLAYER
  9
$CECOLOR
 62
  256
  9
$CELTSCALE
 40
1
  9
$DISPSILH
 70
    0
  9
$DIMSCALE
 40
2.5
  9
$DIMASZ
 40
2.5
  9
$DIMEXO
 40
0.625
  9
$DIMDLI
 40
3.75
  9
$DIMRND
 40
0
  9
$DIMDLE
 40
0
  9
$DIMEXE
 40
1.25
  9
$DIMTP
 40
0
  9
$DIMTM
 40
0
  9
$DIMTXT
 40
2.5
  9
$DIMCEN
 40
2.5
  9
$DIMTSZ
 40
0
  9
$DIMTOL
 70
    0
  9
$DIMLIM
 70
    0
  9
$DIMTIH
 70
    0
  9
$DIMTOH
 70
    0
  9
$DIMSE1
 70
    0
  9
$DIMSE2
 70
    0
  9
$DIMTAD
 70
    1
  9
$DIMZIN
 70
    8
  9
$DIMBLK
  1

  9
$DIMASO
 70
    1
  9
$DIMSHO
 70
    1
  9
$DIMPOST
  1

  9
$DIMAPOST
  1

  9
$DIMALT
 70
    0
  9
$DIMALTD
 70
    3
  9
$DIMALTF
 40
0.03937
  9
$DIMLFAC
 40
1
  9
$DIMTOFL
 70
    1
  9
$DIMTVP
 40
0
  9
$DIMTIX
 70
    0
  9
$DIMSOXD
 70
    0
  9
$DIMSAH
 70
    0
  9
$DIMBLK1
  1

  9
$DIMBLK2
  1

  9
$DIMSTYLE
  2
STANDARD
  9
$DIMCLRD
 70
    0
  9
$DIMCLRE
 70
    0
  9
$DIMCLRT
 70
    0
  9
$DIMTFAC
 40
1
  9
$DIMGAP
 40
0.625
  9
$DIMJUST
 70
    0
  9
$DIMSD1
 70
    0
  9
$DIMSD2
 70
    0
  9
$DIMTOLJ
 70
    0
  9
$DIMTZIN
 70
    8
  9
$DIMALTZ
 70
    0
  9
$DIMALTTZ
 70
    0
  9
$DIMUPT
 70
    0
  9
$DIMDEC
 70
    2
  9
$DIMTDEC
 70
    2
  9
$DIMALTU
 70
    2
  9
$DIMALTTD
 70
    3
  9
$DIMTXSTY
  7
standard
  9
$DIMAUNIT
 70
    0
  9
$DIMADEC
 70
    0
  9
$DIMALTRND
 40
0
  9
$DIMAZIN
 70
    0
  9
$DIMDSEP
 70
   44
  9
$DIMATFIT
 70
    3
  9
$DIMFRAC
 70
    0
  9
$DIMLDRBLK
  1
STANDARD
  9
$DIMLUNIT
 70
    2
  9
$DIMLWD
 70
   -2
  9
$DIMLWE
 70
   -2
  9
$DIMTMOVE
 70
    0
  9
$DIMFXL
 40
1
  9
$DIMFXLON
 70
    0
  9
$DIMJOGANG
 40
0.7854
  9
$DIMTFILL
 70
    0
  9
$DIMTFILLCLR
 70
    0
  9
$DIMARCSYM
 70
    0
  9
$DIMLTYPE
  6

  9
$DIMLTEX1
  6

  9
$DIMLTEX2
  6

  9
$LUNITS
 70
    2
  9
$LUPREC
 70
    4
  9
$SKETCHINC
 40
1
  9
$FILLETRAD
 40
0
  9
$AUNITS
 70
    0
  9
$AUPREC
 70
    2
  9
$MENU
  1
.
  9
$ELEVATION
 40
0
  9
$PELEVATION
 40
0
  9
$THICKNESS
 40
0
  9
$LIMCHECK
 70
    0
  9
$CHAMFERA
 40
0
  9
$CHAMFERB
 40
0
  9
$CHAMFERC
 40
0
  9
$CHAMFERD
 40
0
  9
$SKPOLY
 70
    0
  9
$USRTIMER
 70
    1
  9
$ANGBASE
 50
0
  9
$ANGDIR
 70
    0
  9
$PDMODE
 70
   34
  9
$PDSIZE
 40
0
  9
$PLINEWID
 40
0
  9
$SPLFRAME
 70
    0
  9
$SPLINETYPE
 70
    2
  9
$SPLINESEGS
 70
    8
  9
$HANDSEED
  5
20000
  9
$SURFTAB1
 70
    6
  9
$SURFTAB2
 70
    6
  9
$SURFTYPE
 70
    6
  9
$SURFU
 70
    6
  9
$SURFV
 70
    6
  9
$UCSBASE
  2

  9
$UCSNAME
  2

  9
$UCSORG
 10
0
 20
0
 30
0
  9
$UCSXDIR
 10
1
 20
0
 30
0
  9
$UCSYDIR
 10
0
 20
1
 30
0
  9
$UCSORTHOREF
  2

  9
$UCSORTHOVIEW
 70
    0
  9
$UCSORGTOP
 10
0
 20
0
 30
0
  9
$UCSORGBOTTOM
 10
0
 20
0
 30
0
  9
$UCSORGLEFT
 10
0
 20
0
 30
0
  9
$UCSORGRIGHT
 10
0
 20
0
 30
0
  9
$UCSORGFRONT
 10
0
 20
0
 30
0
  9
$UCSORGBACK
 10
0
 20
0
 30
0
  9
$PUCSBASE
  2

  9
$PUCSNAME
  2

  9
$PUCSORG
 10
0
 20
0
 30
0
  9
$PUCSXDIR
 10
1
 20
0
 30
0
  9
$PUCSYDIR
 10
0
 20
1
 30
0
  9
$PUCSORTHOREF
  2

  9
$PUCSORTHOVIEW
 70
    0
  9
$PUCSORGTOP
 10
0
 20
0
 30
0
  9
$PUCSORGBOTTOM
 10
0
 20
0
 30
0
  9
$PUCSORGLEFT
 10
0
 20
0
 30
0
  9
$PUCSORGRIGHT
 10
0
 20
0
 30
0
  9
$PUCSORGFRONT
 10
0
 20
0
 30
0
  9
$PUCSORGBACK
 10
0
 20
0
 30
0
  9
$USERI1
 70
    0
  9
$USERI2
 70
    0
  9
$USERI3
 70
    0
  9
$USERI4
 70
    0
  9
$USERI5
 70
    0
  9
$USERR1
 40
0
  9
$USERR2
 40
0
  9
$USERR3
 40
0
  9
$USERR4
 40
0
  9
$USERR5
 40
0
  9
$WORLDVIEW
 70
    1
  9
$SHADEDGE
 70
    3
  9
$SHADEDIF
 70
   70
  9
$TILEMODE
 70
    1
  9
$MAXACTVP
 70
   64
  9
$PINSBASE
 10
0
 20
0
 30
0
  9
$PLIMCHECK
 70
    0
  9
$PEXTMIN
 10
0
 20
0
 30
0
  9
$PEXTMAX
 10
0
 20
0
 30
0
  9
$GRIDMODE
 70
    1
  9
$SNAPSTYLE
 70
    0
  9
$GRIDUNIT
 10
0
 20
0
  9
$PLIMMIN
 10
0
 20
0
  9
$PLIMMAX
 10
210
 20
297
  9
$UNITMODE
 70
    0
  9
$VISRETAIN
 70
    1
  9
$PLINEGEN
 70
    0
  9
$PSLTSCALE
 70
    1
  9
$TREEDEPTH
 70
 3020
  9
$CMLSTYLE
  2
Standard
  9
$CMLJUST
 70
    0
  9
$CMLSCALE
 40
20
  9
$PROXYGRAPHICS
 70
    1
  9
$MEASUREMENT
 70
    1
  9
$CELWEIGHT
370
   -1
  9
$ENDCAPS
280
    0
  9
$JOINSTYLE
280
    0
  9
$LWDISPLAY
290
    0
  9
$INSUNITS
 70
    4
  9
$HYPERLINKBASE
  1

  9
$STYLESHEET
  1

  9
$XEDIT
290
    1
  9
$CEPSNTYPE
380
    0
  9
$PSTYLEMODE
290
    1
  9
$EXTNAMES
290
    1
  9
$PSVPSCALE
 40
1
  9
$OLESTARTUP
290
    0
  9
$SORTENTS
280
  127
  9
$INDEXCTL
280
    0
  9
$HIDETEXT
280
    1
  9
$XCLIPFRAME
290
    0
  9
$HALOGAP
280
    0
  9
$OBSCOLOR
 70
  257
  9
$OBSLTYPE
280
    0
  9
$INTERSECTIONDISPLAY
280
    0
  9
$INTERSECTIONCOLOR
 70
  257
  9
$DIMASSOC
280
    1
  9
$PROJECTNAME
  1

  9
$CAMERADISPLAY
290
    0
  9
$LENSLENGTH
 40
50
  9
$CAMERAHEIGHT
 40
0
  9
$STEPSPERSEC
 40
2
  9
$STEPSIZE
 40
50
  9
$3DDWFPREC
 40
2
  9
$PSOLWIDTH
 40
5
  9
$PSOLHEIGHT
 40
80
  9
$LOFTANG1
 40
1.570796326794897
  9
$LOFTANG2
 40
1.570796326794897
  9
$LOFTMAG1
 40
0
  9
$LOFTMAG2
 40
0
  9
$LOFTPARAM
 70
    7
  9
$LOFTNORMALS
280
    1
  9
$LATITUDE
 40
1
  9
$LONGITUDE
 40
1
  9
$NORTHDIRECTION
 40
0
  9
$TIMEZONE
 70
-8000
  9
$LIGHTGLYPHDISPLAY
280
    1
  9
$TILEMODELIGHTSYNCH
280
    1
  9
$SOLIDHIST
280
    1
  9
$SHOWHIST
280
    1
  9
$DWFFRAME
280
    2
  9
$DGNFRAME
280
    0
  9
$REALWORLDSCALE
290
    1
  9
$INTERFERECOLOR
 62
    1
  9
$CSHADOW
280
    0
  9
$SHADOWPLANELOCATION
 40
0
  0
ENDSEC
  0
SECTION
  2
CLASSES
  0
ENDSEC
  0
SECTION
  2
TABLES
  0
TABLE
  2
VPORT
  5
8
330
0
100
AcDbSymbolTable
 70
    1
  0
VPORT
  5
31
330
2
100
AcDbSymbolTableRecord
100
AcDbViewportTableRecord
  2
*ACTIVE
 70
    0
 10
0
 20
0
 11
1
 21
1
 12
255.6466243722413
 22
94.87506711951191
 13
0
 23
0
 14
10
 24
10
 15
10
 25
10
 16
0
 26
0
 36
1
 17
0
 27
0
 37
0
 40
457.305762852208
 41
1.572916666666667
 42
50
 43
0
 44
0
 50
0
 51
0
 71
    0
 72
  100
 73
    1
 74
    3
 75
    0
 76
    1
 77
    0
 78
    0
281
    0
 65
    1
110
0
120
0
130
0
111
1
121
0
131
0
112
0
122
1
132
0
 79
    0
146
0
348
10020
 60
    7
 61
    5
292
1
282
    1
141
0
142
0
 63
  250
421
3358443
  0
ENDTAB
  0
TABLE
  2
LTYPE
  5
5
330
0
100
AcDbSymbolTable
 70
    4
  0
LTYPE
  5
14
330
5
100
AcDbSymbolTableRecord
100
AcDbLinetypeTableRecord
  2
ByBlock
 70
    0
  3

 72
   65
 73
    0
 40
0
  0
LTYPE
  5
15
330
5
100
AcDbSymbolTableRecord
100
AcDbLinetypeTableRecord
  2
ByLayer
 70
    0
  3

 72
   65
 73
    0
 40
0
  0
LTYPE
  5
16
330
5
100
AcDbSymbolTableRecord
100
AcDbLinetypeTableRecord
  2
Continuous
 70
    0
  3
Solid line
 72
   65
 73
    0
 40
0
  0
LTYPE
  5
32
330
5
100
AcDbSymbolTableRecord
100
AcDbLinetypeTableRecord
  2
DOT
 70
    0
  3
Dot . . . . . . . . . . . . . . . . . . . . . .
 72
   65
 73
    2
 40
6.35
 49
0
 74
    0
 49
-6.35
 74
    0
  0
LTYPE
  5
33
330
5
100
AcDbSymbolTableRecord
100
AcDbLinetypeTableRecord
  2
DOTTINY
 70
    0
  3
Dot (.15x) .....................................
 72
   65
 73
    2
 40
0.9525
 49
0
 74
    0
 49
-0.9525
 74
    0
  0
LTYPE
  5
34
330
5
100
AcDbSymbolTableRecord
100
AcDbLinetypeTableRecord
  2
DOT2
 70
    0
  3
Dot (.5x) .....................................
 72
   65
 73
    2
 40
3.175
 49
0
 74
    0
 49
-3.175
 74
    0
  0
LTYPE
  5
35
330
5
100
AcDbSymbolTableRecord
100
AcDbLinetypeTableRecord
  2
DOTX2
 70
    0
  3
Dot (2x) .  .  .  .  .  .  .  .  .  .  .  .  .
 72
   65
 73
    2
 40
12.7
 49
0
 74
    0
 49
-12.7
 74
    0
  0
LTYPE
  5
36
330
5
100
AcDbSymbolTableRecord
100
AcDbLinetypeTableRecord
  2
DASHED
 70
    0
  3
Dashed _ _ _ _ _ _ _ _ _ _ _ _ _ _ _ _ _
 72
   65
 73
    2
 40
19.05
 49
12.7
 74
    0
 49
-6.35
 74
    0
  0
LTYPE
  5
37
330
5
100
AcDbSymbolTableRecord
100
AcDbLinetypeTableRecord
  2
DASHEDTINY
 70
    0
  3
Dashed (.15x) _ _ _ _ _ _ _ _ _ _ _ _ _ _ _ _ _
 72
   65
 73
    2
 40
2.8575
 49
1.905
 74
    0
 49
-0.9525
 74
    0
  0
LTYPE
  5
38
330
5
100
AcDbSymbolTableRecord
100
AcDbLinetypeTableRecord
  2
DASHED2
 70
    0
  3
Dashed (.5x) _ _ _ _ _ _ _ _ _ _ _ _ _ _ _ _ _
 72
   65
 73
    2
 40
9.524999999999999
 49
6.35
 74
    0
 49
-3.175
 74
    0
  0
LTYPE
  5
39
330
5
100
AcDbSymbolTableRecord
100
AcDbLinetypeTableRecord
  2
DASHEDX2
 70
    0
  3
Dashed (2x) ____  ____  ____  ____  ____  ___
 72
   65
 73
    2
 40
38.09999999999999
 49
25.4
 74
    0
 49
-12.7
 74
    0
  0
LTYPE
  5
3A
330
5
100
AcDbSymbolTableRecord
100
AcDbLinetypeTableRecord
  2
DASHDOT
 70
    0
  3
Dash dot __ . __ . __ . __ . __ . __ . __ . __
 72
   65
 73
    4
 40
25.4
 49
12.7
 74
    0
 49
-6.35
 74
    0
 49
0
 74
    0
 49
-6.35
 74
    0
  0
LTYPE
  5
3B
330
5
100
AcDbSymbolTableRecord
100
AcDbLinetypeTableRecord
  2
DASHDOTTINY
 70
    0
  3
Dash dot (.15x) _._._._._._._._._._._._._._._.
 72
   65
 73
    4
 40
3.81
 49
1.905
 74
    0
 49
-0.9525
 74
    0
 49
0
 74
    0
 49
-0.9525
 74
    0
  0
LTYPE
  5
3C
330
5
100
AcDbSymbolTableRecord
100
AcDbLinetypeTableRecord
  2
DASHDOT2
 70
    0
  3
Dash dot (.5x) _._._._._._._._._._._._._._._.
 72
   65
 73
    4
 40
12.7
 49
6.35
 74
    0
 49
-3.175
 74
    0
 49
0
 74
    0
 49
-3.175
 74
    0
  0
LTYPE
  5
3D
330
5
100
AcDbSymbolTableRecord
100
AcDbLinetypeTableRecord
  2
DASHDOTX2
 70
    0
  3
Dash dot (2x) ____  .  ____  .  ____  .  ___
 72
   65
 73
    4
 40
50.8
 49
25.4
 74
    0
 49
-12.7
 74
    0
 49
0
 74
    0
 49
-12.7
 74
    0
  0
LTYPE
  5
3E
330
5
100
AcDbSymbolTableRecord
100
AcDbLinetypeTableRecord
  2
DIVIDE
 70
    0
  3
Divide ____ . . ____ . . ____ . . ____ . . ____
 72
   65
 73
    6
 40
31.75
 49
12.7
 74
    0
 49
-6.35
 74
    0
 49
0
 74
    0
 49
-6.35
 74
    0
 49
0
 74
    0
 49
-6.35
 74
    0
  0
LTYPE
  5
3F
330
5
100
AcDbSymbolTableRecord
100
AcDbLinetypeTableRecord
  2
DIVIDETINY
 70
    0
  3
Divide (.15x) __..__..__..__..__..__..__..__.._
 72
   65
 73
    6
 40
4.7625
 49
1.905
 74
    0
 49
-0.9525
 74
    0
 49
0
 74
    0
 49
-0.9525
 74
    0
 49
0
 74
    0
 49
-0.9525
 74
    0
  0
LTYPE
  5
40
330
5
100
AcDbSymbolTableRecord
100
AcDbLinetypeTableRecord
  2
DIVIDE2
 70
    0
  3
Divide (.5x) __..__..__..__..__..__..__..__.._
 72
   65
 73
    6
 40
15.875
 49
6.35
 74
    0
 49
-3.175
 74
    0
 49
0
 74
    0
 49
-3.175
 74
    0
 49
0
 74
    0
 49
-3.175
 74
    0
  0
LTYPE
  5
41
330
5
100
AcDbSymbolTableRecord
100
AcDbLinetypeTableRecord
  2
DIVIDEX2
 70
    0
  3
Divide (2x) ________  .  .  ________  .  .  _
 72
   65
 73
    6
 40
63.5
 49
25.4
 74
    0
 49
-12.7
 74
    0
 49
0
 74
    0
 49
-12.7
 74
    0
 49
0
 74
    0
 49
-12.7
 74
    0
  0
LTYPE
  5
42
330
5
100
AcDbSymbolTableRecord
100
AcDbLinetypeTableRecord
  2
BORDER
 70
    0
  3
Border __ __ . __ __ . __ __ . __ __ . __ __ .
 72
   65
 73
    6
 40
44.45
 49
12.7
 74
    0
 49
-6.35
 74
    0
 49
12.7
 74
    0
 49
-6.35
 74
    0
 49
0
 74
    0
 49
-6.35
 74
    0
  0
LTYPE
  5
43
330
5
100
AcDbSymbolTableRecord
100
AcDbLinetypeTableRecord
  2
BORDERTINY
 70
    0
  3
Border (.15x) __.__.__.__.__.__.__.__.__.__.__.
 72
   65
 73
    6
 40
6.6675
 49
1.905
 74
    0
 49
-0.9525
 74
    0
 49
1.905
 74
    0
 49
-0.9525
 74
    0
 49
0
 74
    0
 49
-0.9525
 74
    0
  0
LTYPE
  5
44
330
5
100
AcDbSymbolTableRecord
100
AcDbLinetypeTableRecord
  2
BORDER2
 70
    0
  3
Border (.5x) __.__.__.__.__.__.__.__.__.__.__.
 72
   65
 73
    6
 40
22.225
 49
6.35
 74
    0
 49
-3.175
 74
    0
 49
6.35
 74
    0
 49
-3.175
 74
    0
 49
0
 74
    0
 49
-3.175
 74
    0
  0
LTYPE
  5
45
330
5
100
AcDbSymbolTableRecord
100
AcDbLinetypeTableRecord
  2
BORDERX2
 70
    0
  3
Border (2x) ____  ____  .  ____  ____  .  ___
 72
   65
 73
    6
 40
88.89999999999999
 49
25.4
 74
    0
 49
-12.7
 74
    0
 49
25.4
 74
    0
 49
-12.7
 74
    0
 49
0
 74
    0
 49
-12.7
 74
    0
  0
LTYPE
  5
46
330
5
100
AcDbSymbolTableRecord
100
AcDbLinetypeTableRecord
  2
CENTER
 70
    0
  3
Center ____ _ ____ _ ____ _ ____ _ ____ _ ____
 72
   65
 73
    4
 40
50.8
 49
31.75
 74
    0
 49
-6.35
 74
    0
 49
6.35
 74
    0
 49
-6.35
 74
    0
  0
LTYPE
  5
47
330
5
100
AcDbSymbolTableRecord
100
AcDbLinetypeTableRecord
  2
CENTERTINY
 70
    0
  3
Center (.15x) ___ _ ___ _ ___ _ ___ _ ___ _ ___
 72
   65
 73
    4
 40
7.62
 49
4.7625
 74
    0
 49
-0.9525
 74
    0
 49
0.9525
 74
    0
 49
-0.9525
 74
    0
  0
LTYPE
  5
48
330
5
100
AcDbSymbolTableRecord
100
AcDbLinetypeTableRecord
  2
CENTER2
 70
    0
  3
Center (.5x) ___ _ ___ _ ___ _ ___ _ ___ _ ___
 72
   65
 73
    4
 40
28.575
 49
19.05
 74
    0
 49
-3.175
 74
    0
 49
3.175
 74
    0
 49
-3.175
 74
    0
  0
LTYPE
  5
49
330
5
100
AcDbSymbolTableRecord
100
AcDbLinetypeTableRecord
  2
CENTERX2
 70
    0
  3
Center (2x) ________  __  ________  __  _____
 72
   65
 73
    4
 40
101.6
 49
63.5
 74
    0
 49
-12.7
 74
    0
 49
12.7
 74
    0
 49
-12.7
 74
    0
  0
ENDTAB
  0
TABLE
  2
LAYER
  5
2
330
0
100
AcDbSymbolTable
 70
    1
  0
LAYER
  5
10
330
2
100
AcDbSymbolTableRecord
100
AcDbLayerTableRecord
  2
0
 70
    0
 62
    7
  6
CONTINUOUS
370
    0
390
F
  0
LAYER
  5
4A
330
2
100
AcDbSymbolTableRecord
100
AcDbLayerTableRecord
  2
label
 70
    0
 62
    1
  6
CONTINUOUS
370
    0
390
F
  0
ENDTAB
  0
TABLE
  2
STYLE
  5
3
330
0
100
AcDbSymbolTable
 70
    3
  0
STYLE
  5
4B
330
2
100
AcDbSymbolTableRecord
100
AcDbTextStyleTableRecord
  2
standard
 70
    0
 40
0
 41
1
 50
0
 71
    0
 42
1
  3
standard
  4

  0
ENDTAB
  0
TABLE
  2
VIEW
  5
6
330
0
100
AcDbSymbolTable
 70
    0
  0
ENDTAB
  0
TABLE
  2
UCS
  5
7
330
0
100
AcDbSymbolTable
 70
    0
  0
ENDTAB
  0
TABLE
  2
APPID
  5
9
330
0
100
AcDbSymbolTable
 70
    1
  0
APPID
  5
12
330
9
100
AcDbSymbolTableRecord
100
AcDbRegAppTableRecord
  2
ACAD
 70
    0
  0
APPID
  5
4C
330
9
100
AcDbSymbolTableRecord
100
AcDbRegAppTableRecord
  2
LibreCad
 70
    0
  0
ENDTAB
  0
TABLE
  2
DIMSTYLE
  5
A
330
0
100
AcDbSymbolTable
 70
    1
100
AcDbDimStyleTable
 71
    1
  0
DIMSTYLE
105
4D
330
A
100
AcDbSymbolTableRecord
100
AcDbDimStyleTableRecord
  2
Standard
 70
    0
 40
2.5
 41
2.5
 42
0.625
 43
0.38
 44
1.25
 45
0
 46
0
 47
0
 48
0
 49
1
140
2.5
141
0.09
142
0
143
25.4
144
1
145
0
146
1
147
0.625
148
0
 71
    0
 72
    0
 73
    0
 74
    1
 75
    0
 76
    0
 77
    0
 78
    8
 79
    0
170
    0
171
    2
172
    0
173
    0
174
    0
175
    0
176
    0
177
    0
178
    0
179
    0
271
    2
272
    4
273
    2
274
    2
275
    0
276
    0
277
    2
278
   44
279
    0
280
    0
281
    0
282
    0
283
    1
284
    0
285
    0
286
    0
288
    0
289
    3
340
standard
341

371
   -2
372
   -2
  0
ENDTAB
  0
TABLE
  2
BLOCK_RECORD
  5
1
330
0
100
AcDbSymbolTable
 70
    2
  0
BLOCK_RECORD
  5
1F
330
1
100
AcDbSymbolTableRecord
100
AcDbBlockTableRecord
  2
*Model_Space
 70
    0
280
    1
281
    0
  0
BLOCK_RECORD
  5
1E
330
1
100
AcDbSymbolTableRecord
100
AcDbBlockTableRecord
  2
*Paper_Space
 70
    0
280
    1
281
    0
  0
ENDTAB
  0
ENDSEC
  0
SECTION
  2
BLOCKS
  0
BLOCK
  5
20
330
1F
100
AcDbEntity
  8
0
100
AcDbBlockBegin
  2
*Model_Space
 70
    0
 10
0
 20
0
 30
0
  3
*Model_Space
  1

  0
ENDBLK
  5
21
330
1F
100
AcDbEntity
  8
0
100
AcDbBlockEnd
  0
BLOCK
  5
1C
330
1B
100
AcDbEntity
  8
0
100
AcDbBlockBegin
  2
*Paper_Space
 70
    0
 10
0
 20
0
 30
0
  3
*Paper_Space
  1

  0
ENDBLK
  5
1D
330
1F
100
AcDbEntity
  8
0
100
AcDbBlockEnd
  0
ENDSEC
  0
SECTION
  2
ENTITIES
  0
CIRCLE
  5
4E
100
AcDbEntity
  8
0
  6
ByLayer
 62
  256
370
   -1
100
AcDbCircle
 10
122.5
 20
60
 40
1.5
  0
CIRCLE
  5
4F
100
AcDbEntity
  8
0
  6
ByLayer
 62
  256
370
   -1
100
AcDbCircle
 10
175
 20
112.5
 40
1.5
  0
CIRCLE
  5
50
100
AcDbEntity
  8
0
  6
ByLayer
 62
  256
370
   -1
100
AcDbCircle
 10
227.5
 20
60
 40
1.5
  0
CIRCLE
  5
51
100
AcDbEntity
  8
0
  6
ByLayer
 62
  256
370
   -1
100
AcDbCircle
 10
175
 20
7.5
 40
1.5
  0
CIRCLE
  5
52
100
AcDbEntity
  8
0
  6
ByLayer
 62
  256
370
   -1
100
AcDbCircle
 10
175
 20
30
 40
12
  0
CIRCLE
  5
53
100
AcDbEntity
  8
0
  6
ByLayer
 62
  256
370
   -1
100
AcDbCircle
 10
247.5
 20
60
 40
1.5
  0
CIRCLE
  5
54
100
AcDbEntity
  8
0
  6
ByLayer
 62
  256
370
   -1
100
AcDbCircle
 10
352.5
 20
60
 40
1.5
  0
CIRCLE
  5
55
100
AcDbEntity
  8
0
  6
ByLayer
 62
  256
370
   -1
100
AcDbCircle
 10
90
 20
40
 40
3.5
  0
CIRCLE
  5
56
100
AcDbEntity
  8
0
  6
ByLayer
 62
  256
370
   -1
100
AcDbCircle
 10
154
 20
-71
 40
1.5
  0
CIRCLE
  5
57
100
AcDbEntity
  8
0
  6
ByLayer
 62
  256
370
   -1
100
AcDbCircle
 10
186
 20
-71
 40
1.5
  0
CIRCLE
  5
58
100
AcDbEntity
  8
0
  6
ByLayer
 62
  256
370
   -1
100
AcDbCircle
 10
269
 20
-70
 40
1.5
  0
CIRCLE
  5
59
100
AcDbEntity
  8
0
  6
ByLayer
 62
  256
370
   -1
100
AcDbCircle
 10
301
 20
-70
 40
1.5
  0
MTEXT
  5
5A
100
AcDbEntity
  8
label
  6
ByLayer
 62
  256
370
   -1
100
AcDbMText
 10
82
 20
53
 30
0
 40
4
 41
18.66666666666667
 71
    1
 72
    1
  1
ON/OFF
  7
standard
210
0
220
0
230
1
 50
0
 73
    2
 44
1
  0
LWPOLYLINE
  5
5B
100
AcDbEntity
  8
0
  6
ByLayer
 62
  256
370
   -1
100
AcDbPolyline
 90
   68
 70
    1
 43
0
 10
110
 20
65
 10
110
 20
75
 10
105
 20
75
 10
105
 20
85
 10
110
 20
85
 10
110
 20
95
 10
105
 20
95
 10
105
 20
105
 10
80
 20
105
 10
80
 20
110
 10
70
 20
110
 10
70
 20
105
 10
56.5
 20
105
 10
56.5
 20
99.99999999999999
 10
57.75
 20
100
 10
57.75
 20
97.5
 10
56.49999999999999
 20
97.5
 10
56.5
 20
94
 10
53.5
 20
94
 10
53.5
 20
97.5
 10
52.25
 20
97.5
 10
52.25
 20
100
 10
53.5
 20
100
 10
53.5
 20
105
 10
40
 20
105
 10
40
 20
110
 10
30
 20
110
 10
30
 20
105
 10
0
 20
105
 10
0
 20
95
 10
5
 20
95
 10
5
 20
85
 10
0
 20
85
 10
0
 20
75
 10
5
 20
75
 10
5
 20
65
 10
0
 20
65
 10
0
 20
55
 10
5
 20
55
 10
4.999999999999999
 20
45
 10
0
 20
45
 10
0
 20
35
 10
5
 20
35
 10
5
 20
25
 10
0
 20
25
 10
0
 20
15
 10
5
 20
15
 10
5
 20
5
 10
30
 20
5.000000000000001
 10
30
 20
0
 10
40
 20
0
 10
40
 20
5.000000000000002
 10
70
 20
5
 10
70
 20
0
 10
80
 20
0
 10
80
 20
5
 10
110
 20
5
 10
110
 20
15
 10
105
 20
15
 10
105
 20
25
 10
110
 20
25
 10
110
 20
35
 10
105
 20
35
 10
105
 20
45
 10
110
 20
45
 10
110
 20
55
 10
105
 20
55
 10
105
 20
65
  0
LWPOLYLINE
  5
5C
100
AcDbEntity
  8
0
  6
ByLayer
 62
  256
370
   -1
100
AcDbPolyline
 90
    4
 70
    0
 43
0
 10
26.2
 20
22.65451660605711
 10
26.2
 20
34
 10
13.8
 20
34
 10
13.8
 20
22.4938462755177
  0
LWPOLYLINE
  5
5D
100
AcDbEntity
  8
0
  6
ByLayer
 62
  256
370
   -1
100
AcDbPolyline
 90
    4
 70
    0
 43
0
 10
26.2
 20
21.31559718489534
 10
26.2
 20
10
 10
13.8
 20
10
 10
13.8
 20
21.31559718489534
  0
LWPOLYLINE
  5
5E
100
AcDbEntity
  8
0
  6
ByLayer
 62
  256
370
   -1
100
AcDbPolyline
 90
    8
 70
    1
 43
0
 10
230
 20
120
 42
-0.414213562373095
 10
235
 20
115
 10
235
 20
5
 42
-0.414213562373095
 10
230
 20
-8.881784197001252e-016
 10
120
 20
0
 42
-0.414213562373095
 10
115
 20
5.000000000000003
 10
115
 20
115
 42
-0.414213562373095
 10
120
 20
120
  0
LWPOLYLINE
  5
5F
100
AcDbEntity
  8
0
  6
ByLayer
 62
  256
370
   -1
100
AcDbPolyline
 90
    4
 70
    1
 43
0
 10
136
 20
51
 10
214
 20
51
 10
214
 20
105
 10
136
 20
105
  0
LWPOLYLINE
  5
60
100
AcDbEntity
  8
0
  6
ByLayer
 62
  256
370
   -1
100
AcDbPolyline
 90
    4
 70
    1
 43
0
 10
150
 20
115
 10
150
 20
110
 10
160
 20
110
 10
160
 20
115
  0
LWPOLYLINE
  5
61
100
AcDbEntity
  8
0
  6
ByLayer
 62
  256
370
   -1
100
AcDbPolyline
 90
    4
 70
    1
 43
0
 10
190
 20
115
 10
190
 20
110
 10
200
 20
110
 10
200
 20
115
  0
LWPOLYLINE
  5
62
100
AcDbEntity
  8
0
  6
ByLayer
 62
  256
370
   -1
100
AcDbPolyline
 90
    4
 70
    1
 43
0
 10
120
 20
75
 10
120
 20
85
 10
125
 20
85
 10
125
 20
75
  0
LWPOLYLINE
  5
63
100
AcDbEntity
  8
0
  6
ByLayer
 62
  256
370
   -1
100
AcDbPolyline
 90
    4
 70
    1
 43
0
 10
125
 20
35
 10
125
 20
45
 10
120
 20
45
 10
120
 20
35
  0
LWPOLYLINE
  5
64
100
AcDbEntity
  8
0
  6
ByLayer
 62
  256
370
   -1
100
AcDbPolyline
 90
    4
 70
    1
 43
0
 10
150
 20
5
 10
150
 20
10
 10
160
 20
10
 10
160
 20
5
  0
LWPOLYLINE
  5
65
100
AcDbEntity
  8
0
  6
ByLayer
 62
  256
370
   -1
100
AcDbPolyline
 90
    4
 70
    1
 43
0
 10
190
 20
10
 10
190
 20
5
 10
200
 20
5
 10
200
 20
10
  0
LWPOLYLINE
  5
66
100
AcDbEntity
  8
0
  6
ByLayer
 62
  256
370
   -1
100
AcDbPolyline
 90
    4
 70
    1
 43
0
 10
225
 20
45
 10
225
 20
35
 10
230
 20
35
 10
230
 20
45
  0
LWPOLYLINE
  5
67
100
AcDbEntity
  8
0
  6
ByLayer
 62
  256
370
   -1
100
AcDbPolyline
 90
    4
 70
    1
 43
0
 10
225
 20
85
 10
225
 20
75
 10
230
 20
75
 10
230
 20
85
  0
LWPOLYLINE
  5
68
100
AcDbEntity
  8
0
  6
ByLayer
 62
  256
370
   -1
100
AcDbPolyline
 90
    4
 70
    1
 43
0
 10
250
 20
75
 10
250
 20
85
 10
245
 20
85
 10
245
 20
75
  0
LWPOLYLINE
  5
69
100
AcDbEntity
  8
0
  6
ByLayer
 62
  256
370
   -1
100
AcDbPolyline
 90
    8
 70
    1
 43
0
 10
355
 20
120
 42
-0.414213562373095
 10
360
 20
115
 10
360
 20
5
 42
-0.414213562373095
 10
355
 20
-8.881784197001252e-016
 10
245
 20
0
 42
-0.414213562373095
 10
240
 20
5.000000000000003
 10
240
 20
115
 42
-0.414213562373095
 10
245
 20
120
  0
LWPOLYLINE
  5
6A
100
AcDbEntity
  8
0
  6
ByLayer
 62
  256
370
   -1
100
AcDbPolyline
 90
    4
 70
    1
 43
0
 10
275
 20
115
 10
275
 20
110
 10
285
 20
110
 10
285
 20
115
  0
LWPOLYLINE
  5
6B
100
AcDbEntity
  8
0
  6
ByLayer
 62
  256
370
   -1
100
AcDbPolyline
 90
    4
 70
    1
 43
0
 10
275
 20
5
 10
275
 20
10
 10
285
 20
10
 10
285
 20
5
  0
LWPOLYLINE
  5
6C
100
AcDbEntity
  8
0
  6
ByLayer
 62
  256
370
   -1
100
AcDbPolyline
 90
    4
 70
    1
 43
0
 10
315
 20
5
 10
315
 20
10
 10
325
 20
10
 10
325
 20
5
  0
LWPOLYLINE
  5
6D
100
AcDbEntity
  8
0
  6
ByLayer
 62
  256
370
   -1
100
AcDbPolyline
 90
    4
 70
    1
 43
0
 10
355
 20
35
 10
355
 20
45
 10
350
 20
45
 10
350
 20
35
  0
LWPOLYLINE
  5
6E
100
AcDbEntity
  8
0
  6
ByLayer
 62
  256
370
   -1
100
AcDbPolyline
 90
    4
 70
    1
 43
0
 10
350
 20
85
 10
350
 20
75
 10
355
 20
75
 10
355
 20
85
  0
LWPOLYLINE
  5
6F
100
AcDbEntity
  8
0
  6
ByLayer
 62
  256
370
   -1
100
AcDbPolyline
 90
    4
 70
    1
 43
0
 10
315
 20
115
 10
315
 20
110
 10
325
 20
110
 10
325
 20
115
  0
LWPOLYLINE
  5
70
100
AcDbEntity
  8
0
  6
ByLayer
 62
  256
370
   -1
100
AcDbPolyline
 90
   68
 70
    1
 43
0
 10
110
 20
-90
 10
105
 20
-90
 10
105
 20
-100
 10
110
 20
-100
 10
110
 20
-110
 10
80
 20
-110
 10
80
 20
-115
 10
70
 20
-115
 10
70
 20
-110
 10
40
 20
-110
 10
40
 20
-115
 10
30
 20
-115
 10
30
 20
-110
 10
5
 20
-110
 10
5
 20
-100
 10
0
 20
-100
 10
0
 20
-90
 10
5
 20
-90
 10
5
 20
-80
 10
0
 20
-80
 10
0
 20
-70
 10
4.999999999999999
 20
-70
 10
5
 20
-60
 10
0
 20
-60
 10
0
 20
-50
 10
5
 20
-50
 10
5
 20
-40
 10
0
 20
-40
 10
0
 20
-30
 10
5
 20
-30
 10
5
 20
-20
 10
0
 20
-20
 10
0
 20
-10
 10
30
 20
-10
 10
30
 20
-5
 10
40
 20
-5
 10
40
 20
-10
 10
53.5
 20
-10
 10
53.5
 20
-14.99999999999999
 10
52.25
 20
-15
 10
52.25
 20
-17.5
 10
53.5
 20
-17.5
 10
53.5
 20
-21
 10
56.5
 20
-21
 10
56.49999999999999
 20
-17.5
 10
57.75
 20
-17.5
 10
57.75
 20
-15
 10
56.5
 20
-15.00000000000001
 10
56.5
 20
-10
 10
70
 20
-10
 10
70
 20
-5
 10
80
 20
-5
 10
80
 20
-10
 10
105
 20
-10
 10
105
 20
-20
 10
110
 20
-20
 10
110
 20
-30
 10
105
 20
-30
 10
105
 20
-40
 10
110
 20
-40
 10
110
 20
-50
 10
105
 20
-50
 10
105
 20
-60
 10
110
 20
-60
 10
110
 20
-70
 10
105
 20
-70
 10
105
 20
-80
 10
110
 20
-80
  0
LWPOLYLINE
  5
71
100
AcDbEntity
  8
0
  6
ByLayer
 62
  256
370
   -1
100
AcDbPolyline
 90
   80
 70
    1
 43
0
 10
220
 20
-20
 10
225
 20
-20
 10
225
 20
-30
 10
220
 20
-30
 10
220
 20
-40
 10
225
 20
-40
 10
225
 20
-50
 10
220
 20
-50
 10
220
 20
-60
 10
225
 20
-60
 10
225
 20
-70
 10
220
 20
-70
 10
220
 20
-80
 10
225
 20
-80
 10
225
 20
-90
 10
220
 20
-90
 10
220
 20
-100
 10
225
 20
-100
 10
225
 20
-110
 10
195
 20
-110
 10
195
 20
-115
 10
185
 20
-115
 10
185
 20
-110
 10
171.5
 20
-110
 10
171.5
 20
-105
 10
172.75
 20
-105
 10
172.75
 20
-102.5
 10
171.5
 20
-102.5
 10
171.5
 20
-99
 10
168.5
 20
-99
 10
168.5
 20
-102.5
 10
167.25
 20
-102.5
 10
167.25
 20
-105
 10
168.5
 20
-105
 10
168.5
 20
-110
 10
155
 20
-110
 10
155
 20
-115
 10
145
 20
-115
 10
145
 20
-110
 10
120
 20
-110
 10
120
 20
-100
 10
115
 20
-100
 10
115
 20
-90
 10
120
 20
-90
 10
120
 20
-80
 10
115
 20
-80
 10
115
 20
-70
 10
120
 20
-70
 10
120
 20
-60
 10
115
 20
-60
 10
115
 20
-50
 10
120
 20
-50
 10
120
 20
-40
 10
115
 20
-40
 10
115
 20
-30
 10
120
 20
-30
 10
120
 20
-20
 10
115
 20
-20
 10
115
 20
-10
 10
145
 20
-10
 10
145
 20
-5
 10
155
 20
-5
 10
155
 20
-10
 10
168.5
 20
-10
 10
168.5
 20
-14.99999999999999
 10
167.25
 20
-15
 10
167.25
 20
-17.5
 10
168.5
 20
-17.5
 10
168.5
 20
-21
 10
171.5
 20
-21
 10
171.5
 20
-17.5
 10
172.75
 20
-17.5
 10
172.75
 20
-15
 10
171.5
 20
-15.00000000000001
 10
171.5
 20
-10
 10
185
 20
-10
 10
185
 20
-5
 10
195
 20
-5
 10
195
 20
-10
 10
220
 20
-10
  0
LWPOLYLINE
  5
72
100
AcDbEntity
  8
0
  6
ByLayer
 62
  256
370
   -1
100
AcDbPolyline
 90
   80
 70
    1
 43
0
 10
335
 20
-40
 10
335
 20
-30
 10
340
 20
-30
 10
340
 20
-20
 10
335
 20
-20
 10
335
 20
-10
 10
310
 20
-10
 10
310
 20
-5
 10
300
 20
-5
 10
300
 20
-10
 10
286.5
 20
-10
 10
286.5
 20
-15.00000000000001
 10
287.75
 20
-15
 10
287.75
 20
-17.5
 10
286.5
 20
-17.5
 10
286.5
 20
-21
 10
283.5
 20
-21
 10
283.5
 20
-17.5
 10
282.25
 20
-17.5
 10
282.25
 20
-15
 10
283.5
 20
-14.99999999999999
 10
283.5
 20
-10
 10
270
 20
-10
 10
270
 20
-5
 10
260
 20
-5
 10
260
 20
-10
 10
230
 20
-10
 10
230
 20
-20
 10
235
 20
-20
 10
235
 20
-30
 10
230
 20
-30
 10
230
 20
-40
 10
235
 20
-40
 10
235
 20
-50
 10
230
 20
-50
 10
230
 20
-60
 10
235
 20
-60
 10
235
 20
-70
 10
230
 20
-70
 10
230
 20
-80
 10
235
 20
-80
 10
235
 20
-90
 10
230
 20
-90
 10
230
 20
-100
 10
235
 20
-100
 10
235
 20
-110
 10
260
 20
-110
 10
260
 20
-115
 10
270
 20
-115
 10
270
 20
-110
 10
283.5
 20
-110
 10
283.5
 20
-105
 10
282.25
 20
-105
 10
282.25
 20
-102.5
 10
283.5
 20
-102.5
 10
283.5
 20
-99
 10
286.5
 20
-99
 10
286.5
 20
-102.5
 10
287.75
 20
-102.5
 10
287.75
 20
-105
 10
286.5
 20
-105
 10
286.5
 20
-110
 10
300
 20
-110
 10
300
 20
-115
 10
310
 20
-115
 10
310
 20
-110
 10
340
 20
-110
 10
340
 20
-100
 10
335
 20
-100
 10
335
 20
-90
 10
340
 20
-90
 10
340
 20
-80
 10
335
 20
-80
 10
335
 20
-70
 10
340
 20
-70
 10
340
 20
-60
 10
335
 20
-60
 10
335
 20
-50
 10
340
 20
-50
 10
340
 20
-40
  0
LWPOLYLINE
  5
73
100
AcDbEntity
  8
0
  6
ByLayer
 62
  256
370
   -1
100
AcDbPolyline
 90
    4
 70
    1
 43
0
 10
245
 20
45
 10
245
 20
35
 10
250
 20
35
 10
250
 20
45
  0
LWPOLYLINE
  5
74
100
AcDbEntity
  8
0
  6
ByLayer
 62
  256
370
   -1
100
AcDbPolyline
 90
    2
 70
    0
 43
0
 10
175.1624513941968
 20
-76.61324518688687
 10
175.1624602491968
 20
-76.61359559188688
  0
LWPOLYLINE
  5
75
100
AcDbEntity
  8
0
  6
ByLayer
 62
  256
370
   -1
100
AcDbPolyline
 90
    2
 70
    0
 43
0
 10
290.1624513941968
 20
-75.61324518688687
 10
290.1624602491968
 20
-75.61359559188688
  0
SPLINE
  5
76
100
AcDbEntity
  8
0
  6
ByLayer
 62
  256
370
   -1
100
AcDbSpline
210
0
220
0
230
0
 70
    8
 71
    3
 72
    8
 73
    4
 74
    0
 42
1e-007
 43
1e-007
 40
0
 40
0
 40
0
 40
0
 40
1
 40
1
 40
1
 40
1
 10
161.8205305491967
 20
-56.52409011188687
 30
0
 10
164.8664506791968
 20
-58.09444213688688
 30
0
 10
166.6372166541968
 20
-59.36475134188689
 30
0
 10
167.6072781091968
 20
-60.44665903688688
 30
0
  0
SPLINE
  5
77
100
AcDbEntity
  8
0
  6
ByLayer
 62
  256
370
   -1
100
AcDbSpline
210
0
220
0
230
0
 70
    8
 71
    3
 72
    8
 73
    4
 74
    0
 42
1e-007
 43
1e-007
 40
0
 40
0
 40
0
 40
0
 40
1
 40
1
 40
1
 40
1
 10
167.6072781091968
 20
-60.44665903688688
 30
0
 10
167.1105024891968
 20
-62.43779054188688
 30
0
 10
164.5188603041967
 20
-62.52866181688689
 30
0
 10
163.5712133841968
 20
-62.47280953688688
 30
0
  0
SPLINE
  5
78
100
AcDbEntity
  8
0
  6
ByLayer
 62
  256
370
   -1
100
AcDbSpline
210
0
220
0
230
0
 70
    8
 71
    3
 72
    8
 73
    4
 74
    0
 42
1e-007
 43
1e-007
 40
0
 40
0
 40
0
 40
0
 40
1
 40
1
 40
1
 40
1
 10
163.5712133841968
 20
-62.47280953688688
 30
0
 10
163.7652428791968
 20
-62.38248853688687
 30
0
 10
163.9271363141968
 20
-62.27431206188687
 30
0
 10
163.9845420141967
 20
-62.10809991688689
 30
0
  0
SPLINE
  5
79
100
AcDbEntity
  8
0
  6
ByLayer
 62
  256
370
   -1
100
AcDbSpline
210
0
220
0
230
0
 70
    8
 71
    3
 72
    8
 73
    4
 74
    0
 42
1e-007
 43
1e-007
 40
0
 40
0
 40
0
 40
0
 40
1
 40
1
 40
1
 40
1
 10
163.9845420141967
 20
-62.10809991688689
 30
0
 10
163.7467561691968
 20
-61.93910856688687
 30
0
 10
162.9036235491968
 20
-62.09026341688687
 30
0
 10
162.3149975441967
 20
-61.75960506688688
 30
0
  0
SPLINE
  5
7A
100
AcDbEntity
  8
0
  6
ByLayer
 62
  256
370
   -1
100
AcDbSpline
210
0
220
0
230
0
 70
    8
 71
    3
 72
    8
 73
    4
 74
    0
 42
1e-007
 43
1e-007
 40
0
 40
0
 40
0
 40
0
 40
1
 40
1
 40
1
 40
1
 10
162.3149975441967
 20
-61.75960506688688
 30
0
 10
162.5411099691968
 20
-61.71273681688687
 30
0
 10
162.6468753541967
 20
-61.66710194188688
 30
0
 10
162.7526407391968
 20
-61.50026488688688
 30
0
  0
SPLINE
  5
7B
100
AcDbEntity
  8
0
  6
ByLayer
 62
  256
370
   -1
100
AcDbSpline
210
0
220
0
230
0
 70
    8
 71
    3
 72
    8
 73
    4
 74
    0
 42
1e-007
 43
1e-007
 40
0
 40
0
 40
0
 40
0
 40
1
 40
1
 40
1
 40
1
 10
162.7526407391968
 20
-61.50026488688688
 30
0
 10
162.1965138491967
 20
-61.32289544188689
 30
0
 10
161.5974882791968
 20
-61.17005181688687
 30
0
 10
161.2451908391968
 20
-60.87622394188689
 30
0
  0
SPLINE
  5
7C
100
AcDbEntity
  8
0
  6
ByLayer
 62
  256
370
   -1
100
AcDbSpline
210
0
220
0
230
0
 70
    8
 71
    3
 72
    8
 73
    4
 74
    0
 42
1e-007
 43
1e-007
 40
0
 40
0
 40
0
 40
0
 40
1
 40
1
 40
1
 40
1
 10
161.2451908391968
 20
-60.87622394188689
 30
0
 10
161.4353165441968
 20
-60.87907019188687
 30
0
 10
161.6128276691967
 20
-60.91872794188687
 30
0
 10
161.8611168091968
 20
-60.74654879188687
 30
0
  0
SPLINE
  5
7D
100
AcDbEntity
  8
0
  6
ByLayer
 62
  256
370
   -1
100
AcDbSpline
210
0
220
0
230
0
 70
    8
 71
    3
 72
    8
 73
    4
 74
    0
 42
1e-007
 43
1e-007
 40
0
 40
0
 40
0
 40
0
 40
1
 40
1
 40
1
 40
1
 10
161.8611168091968
 20
-60.74654879188687
 30
0
 10
161.3629964941968
 20
-60.47811958688689
 30
0
 10
160.8314801791968
 20
-60.26537188688688
 30
0
 10
160.4185310491968
 20
-59.85507546188688
 30
0
  0
SPLINE
  5
7E
100
AcDbEntity
  8
0
  6
ByLayer
 62
  256
370
   -1
100
AcDbSpline
210
0
220
0
230
0
 70
    8
 71
    3
 72
    8
 73
    4
 74
    0
 42
1e-007
 43
1e-007
 40
0
 40
0
 40
0
 40
0
 40
1
 40
1
 40
1
 40
1
 10
160.4185310491968
 20
-59.85507546188688
 30
0
 10
160.6760723991967
 20
-59.84843421188689
 30
0
 10
160.9537234541967
 20
-59.85222921188688
 30
0
 10
161.0344570191968
 20
-59.75781846688687
 30
0
  0
SPLINE
  5
7F
100
AcDbEntity
  8
0
  6
ByLayer
 62
  256
370
   -1
100
AcDbSpline
210
0
220
0
230
0
 70
    8
 71
    3
 72
    8
 73
    4
 74
    0
 42
1e-007
 43
1e-007
 40
0
 40
0
 40
0
 40
0
 40
1
 40
1
 40
1
 40
1
 10
161.0344570191968
 20
-59.75781846688687
 30
0
 10
160.5785649341968
 20
-59.47537559188687
 30
0
 10
160.1939024691968
 20
-59.16126344188687
 30
0
 10
159.8754943791968
 20
-58.81770209188688
 30
0
  0
SPLINE
  5
80
100
AcDbEntity
  8
0
  6
ByLayer
 62
  256
370
   -1
100
AcDbSpline
210
0
220
0
230
0
 70
    8
 71
    3
 72
    8
 73
    4
 74
    0
 42
1e-007
 43
1e-007
 40
0
 40
0
 40
0
 40
0
 40
1
 40
1
 40
1
 40
1
 10
159.8754943791968
 20
-58.81770209188688
 30
0
 10
160.2359055291967
 20
-58.86124971688688
 30
0
 10
160.3880938841968
 20
-58.82339459188687
 30
0
 10
160.4752372041968
 20
-58.76096684188687
 30
0
  0
SPLINE
  5
81
100
AcDbEntity
  8
0
  6
ByLayer
 62
  256
370
   -1
100
AcDbSpline
210
0
220
0
230
0
 70
    8
 71
    3
 72
    8
 73
    4
 74
    0
 42
1e-007
 43
1e-007
 40
0
 40
0
 40
0
 40
0
 40
1
 40
1
 40
1
 40
1
 10
160.4752372041968
 20
-58.76096684188687
 30
0
 10
160.1306145191968
 20
-58.40799389188688
 30
0
 10
159.6944374591968
 20
-58.10994471188688
 30
0
 10
159.4864828441968
 20
-57.67498078688688
 30
0
  0
SPLINE
  5
82
100
AcDbEntity
  8
0
  6
ByLayer
 62
  256
370
   -1
100
AcDbSpline
210
0
220
0
230
0
 70
    8
 71
    3
 72
    8
 73
    4
 74
    0
 42
1e-007
 43
1e-007
 40
0
 40
0
 40
0
 40
0
 40
1
 40
1
 40
1
 40
1
 10
159.4864828441968
 20
-57.67498078688688
 30
0
 10
159.7540834741968
 20
-57.76719928688688
 30
0
 10
159.9989039841968
 20
-57.80252061688689
 30
0
 10
160.1753879291968
 20
-57.66644203688688
 30
0
  0
SPLINE
  5
83
100
AcDbEntity
  8
0
  6
ByLayer
 62
  256
370
   -1
100
AcDbSpline
210
0
220
0
230
0
 70
    8
 71
    3
 72
    8
 73
    4
 74
    0
 42
1e-007
 43
1e-007
 40
0
 40
0
 40
0
 40
0
 40
1
 40
1
 40
1
 40
1
 10
160.1753879291968
 20
-57.66644203688688
 30
0
 10
160.0582818191968
 20
-57.40225311188689
 30
0
 10
159.5565486641968
 20
-57.24643041188688
 30
0
 10
159.2676821191968
 20
-56.62904969188688
 30
0
  0
SPLINE
  5
84
100
AcDbEntity
  8
0
  6
ByLayer
 62
  256
370
   -1
100
AcDbSpline
210
0
220
0
230
0
 70
    8
 71
    3
 72
    8
 73
    4
 74
    0
 42
1e-007
 43
1e-007
 40
0
 40
0
 40
0
 40
0
 40
1
 40
1
 40
1
 40
1
 10
159.2676821191968
 20
-56.62904969188688
 30
0
 10
159.5493938241968
 20
-56.65637369188688
 30
0
 10
159.8481944141967
 20
-56.69052869188688
 30
0
 10
159.9079492191968
 20
-56.62904969188688
 30
0
  0
SPLINE
  5
85
100
AcDbEntity
  8
0
  6
ByLayer
 62
  256
370
   -1
100
AcDbSpline
210
0
220
0
230
0
 70
    8
 71
    3
 72
    8
 73
    4
 74
    0
 42
1e-007
 43
1e-007
 40
0
 40
0
 40
0
 40
0
 40
1
 40
1
 40
1
 40
1
 10
159.9079492191968
 20
-56.62904969188688
 30
0
 10
159.7771874341967
 20
-56.09631771188689
 30
0
 10
159.5528282991968
 20
-55.79683528688687
 30
0
 10
159.3327701641967
 20
-55.48653711188687
 30
0
  0
SPLINE
  5
86
100
AcDbEntity
  8
0
  6
ByLayer
 62
  256
370
   -1
100
AcDbSpline
210
0
220
0
230
0
 70
    8
 71
    3
 72
    8
 73
    4
 74
    0
 42
1e-007
 43
1e-007
 40
0
 40
0
 40
0
 40
0
 40
1
 40
1
 40
1
 40
1
 10
159.3327701641967
 20
-55.48653711188687
 30
0
 10
159.9356969941968
 20
-55.47799836188688
 30
0
 10
160.8491863841968
 20
-55.48938336188687
 30
0
 10
160.8078107641968
 20
-55.43786623688688
 30
0
  0
SPLINE
  5
87
100
AcDbEntity
  8
0
  6
ByLayer
 62
  256
370
   -1
100
AcDbSpline
210
0
220
0
230
0
 70
    8
 71
    3
 72
    8
 73
    4
 74
    0
 42
1e-007
 43
1e-007
 40
0
 40
0
 40
0
 40
0
 40
1
 40
1
 40
1
 40
1
 10
160.4350051441967
 20
-55.05696208688688
 30
0
 10
161.0239461341968
 20
-54.89839686688687
 30
0
 10
161.6265579791967
 20
-55.08238858688689
 30
0
 10
162.0640266041968
 20
-55.21904653688687
 30
0
  0
SPLINE
  5
88
100
AcDbEntity
  8
0
  6
ByLayer
 62
  256
370
   -1
100
AcDbSpline
210
0
220
0
230
0
 70
    8
 71
    3
 72
    8
 73
    4
 74
    0
 42
1e-007
 43
1e-007
 40
0
 40
0
 40
0
 40
0
 40
1
 40
1
 40
1
 40
1
 10
162.0640266041968
 20
-55.21904653688687
 30
0
 10
162.2604558041967
 20
-55.06404861688689
 30
0
 10
162.0605453241967
 20
-54.86805584188688
 30
0
 10
161.8208936041968
 20
-54.66794549188689
 30
0
  0
SPLINE
  5
89
100
AcDbEntity
  8
0
  6
ByLayer
 62
  256
370
   -1
100
AcDbSpline
210
0
220
0
230
0
 70
    8
 71
    3
 72
    8
 73
    4
 74
    0
 42
1e-007
 43
1e-007
 40
0
 40
0
 40
0
 40
0
 40
1
 40
1
 40
1
 40
1
 10
161.8208936041968
 20
-54.66794549188689
 30
0
 10
162.3213895891968
 20
-54.73473749188688
 30
0
 10
162.7736511241967
 20
-54.84983098688689
 30
0
 10
163.1824308141967
 20
-55.0083380168869
 30
0
  0
SPLINE
  5
8A
100
AcDbEntity
  8
0
  6
ByLayer
 62
  256
370
   -1
100
AcDbSpline
210
0
220
0
230
0
 70
    8
 71
    3
 72
    8
 73
    4
 74
    0
 42
1e-007
 43
1e-007
 40
0
 40
0
 40
0
 40
0
 40
1
 40
1
 40
1
 40
1
 10
163.1824308141967
 20
-55.0083380168869
 30
0
 10
163.4008469791968
 20
-54.81113084188687
 30
0
 10
163.0406015441967
 20
-54.61391481188687
 30
0
 10
162.8663541191968
 20
-54.41670763688687
 30
0
  0
SPLINE
  5
8B
100
AcDbEntity
  8
0
  6
ByLayer
 62
  256
370
   -1
100
AcDbSpline
210
0
220
0
230
0
 70
    8
 71
    3
 72
    8
 73
    4
 74
    0
 42
1e-007
 43
1e-007
 40
0
 40
0
 40
0
 40
0
 40
1
 40
1
 40
1
 40
1
 10
162.8663541191968
 20
-54.41670763688687
 30
0
 10
163.6395790441967
 20
-54.56341221688689
 30
0
 10
163.9671760941968
 20
-54.76952878688689
 30
0
 10
164.2927567341967
 20
-54.97592871688688
 30
0
  0
SPLINE
  5
8C
100
AcDbEntity
  8
0
  6
ByLayer
 62
  256
370
   -1
100
AcDbSpline
210
0
220
0
230
0
 70
    8
 71
    3
 72
    8
 73
    4
 74
    0
 42
1e-007
 43
1e-007
 40
0
 40
0
 40
0
 40
0
 40
1
 40
1
 40
1
 40
1
 10
164.2927567341967
 20
-54.97592871688688
 30
0
 10
164.5289689191968
 20
-54.74951016188688
 30
0
 10
164.3062795841967
 20
-54.55709354188688
 30
0
 10
164.1468756691967
 20
-54.36000021688688
 30
0
  0
SPLINE
  5
8D
100
AcDbEntity
  8
0
  6
ByLayer
 62
  256
370
   -1
100
AcDbSpline
210
0
220
0
230
0
 70
    8
 71
    3
 72
    8
 73
    4
 74
    0
 42
1e-007
 43
1e-007
 40
0
 40
0
 40
0
 40
0
 40
1
 40
1
 40
1
 40
1
 10
164.1468756691967
 20
-54.36000021688688
 30
0
 10
164.7298989891968
 20
-54.57593571688687
 30
0
 10
165.0301960741968
 20
-54.85470756188688
 30
0
 10
165.3463625841968
 20
-55.12991084188688
 30
0
  0
SPLINE
  5
8E
100
AcDbEntity
  8
0
  6
ByLayer
 62
  256
370
   -1
100
AcDbSpline
210
0
220
0
230
0
 70
    8
 71
    3
 72
    8
 73
    4
 74
    0
 42
1e-007
 43
1e-007
 40
0
 40
0
 40
0
 40
0
 40
1
 40
1
 40
1
 40
1
 10
165.3463625841968
 20
-55.12991084188688
 30
0
 10
165.4535536241968
 20
-54.98524544188687
 30
0
 10
165.6186829291968
 20
-54.87921314188687
 30
0
 10
165.4193050141968
 20
-54.53016801688687
 30
0
  0
SPLINE
  5
8F
100
AcDbEntity
  8
0
  6
ByLayer
 62
  256
370
   -1
100
AcDbSpline
210
0
220
0
230
0
 70
    8
 71
    3
 72
    8
 73
    4
 74
    0
 42
1e-007
 43
1e-007
 40
0
 40
0
 40
0
 40
0
 40
1
 40
1
 40
1
 40
1
 10
165.4193050141968
 20
-54.53016801688687
 30
0
 10
165.8332484341967
 20
-54.76875966688689
 30
0
 10
166.1450140091968
 20
-55.04994133688687
 30
0
 10
166.3756500741968
 20
-55.36493519188688
 30
0
  0
SPLINE
  5
90
100
AcDbEntity
  8
0
  6
ByLayer
 62
  256
370
   -1
100
AcDbSpline
210
0
220
0
230
0
 70
    8
 71
    3
 72
    8
 73
    4
 74
    0
 42
1e-007
 43
1e-007
 40
0
 40
0
 40
0
 40
0
 40
1
 40
1
 40
1
 40
1
 10
166.3756500741968
 20
-55.36493519188688
 30
0
 10
166.6317657691967
 20
-55.20185518688688
 30
0
 10
166.5282369041967
 20
-54.97884201188688
 30
0
 10
166.5296359941967
 20
-54.77330481188688
 30
0
  0
SPLINE
  5
91
100
AcDbEntity
  8
0
  6
ByLayer
 62
  256
370
   -1
100
AcDbSpline
210
0
220
0
230
0
 70
    8
 71
    3
 72
    8
 73
    4
 74
    0
 42
1e-007
 43
1e-007
 40
0
 40
0
 40
0
 40
0
 40
1
 40
1
 40
1
 40
1
 10
166.5296359941967
 20
-54.77330481188688
 30
0
 10
166.9598245441967
 20
-55.12325061688687
 30
0
 10
167.2328406391968
 20
-55.49565396688688
 30
0
 10
167.5670283391968
 20
-55.85929086688687
 30
0
  0
SPLINE
  5
92
100
AcDbEntity
  8
0
  6
ByLayer
 62
  256
370
   -1
100
AcDbSpline
210
0
220
0
230
0
 70
    8
 71
    3
 72
    8
 73
    4
 74
    0
 42
1e-007
 43
1e-007
 40
0
 40
0
 40
0
 40
0
 40
1
 40
1
 40
1
 40
1
 10
167.5670283391968
 20
-55.85929086688687
 30
0
 10
167.6343453141967
 20
-55.81024049188688
 30
0
 10
167.6932879891967
 20
-55.64403846688688
 30
0
 10
167.7453275591967
 20
-55.38112086688687
 30
0
  0
SPLINE
  5
93
100
AcDbEntity
  8
0
  6
ByLayer
 62
  256
370
   -1
100
AcDbSpline
210
0
220
0
230
0
 70
    8
 71
    3
 72
    8
 73
    4
 74
    0
 42
1e-007
 43
1e-007
 40
0
 40
0
 40
0
 40
0
 40
1
 40
1
 40
1
 40
1
 10
167.7453275591967
 20
-55.38112086688687
 30
0
 10
168.7716473591968
 20
-56.37682513688689
 30
0
 10
170.2218534791968
 20
-58.88472179188689
 30
0
 10
168.1181331791967
 20
-59.87908769188687
 30
0
  0
SPLINE
  5
94
100
AcDbEntity
  8
0
  6
ByLayer
 62
  256
370
   -1
100
AcDbSpline
210
0
220
0
230
0
 70
    8
 71
    3
 72
    8
 73
    4
 74
    0
 42
1e-007
 43
1e-007
 40
0
 40
0
 40
0
 40
0
 40
1
 40
1
 40
1
 40
1
 10
168.1181331791967
 20
-59.87908769188687
 30
0
 10
166.3277344041967
 20
-58.40247216688689
 30
0
 10
164.1894745441968
 20
-57.32917026688688
 30
0
 10
161.8199069041968
 20
-56.52403318688688
 30
0
  0
LWPOLYLINE
  5
95
100
AcDbEntity
  8
0
  6
ByLayer
 62
  256
370
   -1
100
AcDbPolyline
 90
    2
 70
    0
 43
0
 10
160.8078107641968
 20
-55.43786623688688
 10
160.4350051441967
 20
-55.05696208688688
  0
SPLINE
  5
96
100
AcDbEntity
  8
0
  6
ByLayer
 62
  256
370
   -1
100
AcDbSpline
210
0
220
0
230
0
 70
    8
 71
    3
 72
    8
 73
    4
 74
    0
 42
1e-007
 43
1e-007
 40
0
 40
0
 40
0
 40
0
 40
1
 40
1
 40
1
 40
1
 10
177.9820933841968
 20
-56.52409011188687
 30
0
 10
174.9365312491968
 20
-58.09457496188687
 30
0
 10
173.1658550891968
 20
-59.36452364188688
 30
0
 10
172.1957936341968
 20
-60.44665903688688
 30
0
  0
SPLINE
  5
97
100
AcDbEntity
  8
0
  6
ByLayer
 62
  256
370
   -1
100
AcDbSpline
210
0
220
0
230
0
 70
    8
 71
    3
 72
    8
 73
    4
 74
    0
 42
1e-007
 43
1e-007
 40
0
 40
0
 40
0
 40
0
 40
1
 40
1
 40
1
 40
1
 10
172.1957936341968
 20
-60.44665903688688
 30
0
 10
172.6925692541968
 20
-62.43779054188688
 30
0
 10
175.2842114391967
 20
-62.52866181688689
 30
0
 10
176.2318596241968
 20
-62.47280953688688
 30
0
  0
SPLINE
  5
98
100
AcDbEntity
  8
0
  6
ByLayer
 62
  256
370
   -1
100
AcDbSpline
210
0
220
0
230
0
 70
    8
 71
    3
 72
    8
 73
    4
 74
    0
 42
1e-007
 43
1e-007
 40
0
 40
0
 40
0
 40
0
 40
1
 40
1
 40
1
 40
1
 10
176.2318596241968
 20
-62.47280953688688
 30
0
 10
176.0378288641968
 20
-62.38248853688687
 30
0
 10
175.8759354291968
 20
-62.27431206188687
 30
0
 10
175.8185297291968
 20
-62.10809991688689
 30
0
  0
SPLINE
  5
99
100
AcDbEntity
  8
0
  6
ByLayer
 62
  256
370
   -1
100
AcDbSpline
210
0
220
0
230
0
 70
    8
 71
    3
 72
    8
 73
    4
 74
    0
 42
1e-007
 43
1e-007
 40
0
 40
0
 40
0
 40
0
 40
1
 40
1
 40
1
 40
1
 10
175.8185297291968
 20
-62.10809991688689
 30
0
 10
176.0563155741968
 20
-61.93910856688687
 30
0
 10
176.8994481941968
 20
-62.09026341688687
 30
0
 10
177.4880754641967
 20
-61.75960506688688
 30
0
  0
SPLINE
  5
9A
100
AcDbEntity
  8
0
  6
ByLayer
 62
  256
370
   -1
100
AcDbSpline
210
0
220
0
230
0
 70
    8
 71
    3
 72
    8
 73
    4
 74
    0
 42
1e-007
 43
1e-007
 40
0
 40
0
 40
0
 40
0
 40
1
 40
1
 40
1
 40
1
 10
177.4880754641967
 20
-61.75960506688688
 30
0
 10
177.2619617741968
 20
-61.71273681688687
 30
0
 10
177.1561963891967
 20
-61.66710194188688
 30
0
 10
177.0504322691968
 20
-61.50026488688688
 30
0
  0
SPLINE
  5
9B
100
AcDbEntity
  8
0
  6
ByLayer
 62
  256
370
   -1
100
AcDbSpline
210
0
220
0
230
0
 70
    8
 71
    3
 72
    8
 73
    4
 74
    0
 42
1e-007
 43
1e-007
 40
0
 40
0
 40
0
 40
0
 40
1
 40
1
 40
1
 40
1
 10
177.0504322691968
 20
-61.50026488688688
 30
0
 10
177.6065578941968
 20
-61.32289544188689
 30
0
 10
178.2055847291968
 20
-61.17005181688687
 30
0
 10
178.5578821691968
 20
-60.87622394188689
 30
0
  0
SPLINE
  5
9C
100
AcDbEntity
  8
0
  6
ByLayer
 62
  256
370
   -1
100
AcDbSpline
210
0
220
0
230
0
 70
    8
 71
    3
 72
    8
 73
    4
 74
    0
 42
1e-007
 43
1e-007
 40
0
 40
0
 40
0
 40
0
 40
1
 40
1
 40
1
 40
1
 10
178.5578821691968
 20
-60.87622394188689
 30
0
 10
178.3677564641967
 20
-60.87907019188687
 30
0
 10
178.1902453391968
 20
-60.91872794188687
 30
0
 10
177.9419549341968
 20
-60.74654879188687
 30
0
  0
SPLINE
  5
9D
100
AcDbEntity
  8
0
  6
ByLayer
 62
  256
370
   -1
100
AcDbSpline
210
0
220
0
230
0
 70
    8
 71
    3
 72
    8
 73
    4
 74
    0
 42
1e-007
 43
1e-007
 40
0
 40
0
 40
0
 40
0
 40
1
 40
1
 40
1
 40
1
 10
177.9419549341968
 20
-60.74654879188687
 30
0
 10
178.4400752491968
 20
-60.47811958688689
 30
0
 10
178.9715928291968
 20
-60.26537188688688
 30
0
 10
179.3845406941968
 20
-59.85507546188688
 30
0
  0
SPLINE
  5
9E
100
AcDbEntity
  8
0
  6
ByLayer
 62
  256
370
   -1
100
AcDbSpline
210
0
220
0
230
0
 70
    8
 71
    3
 72
    8
 73
    4
 74
    0
 42
1e-007
 43
1e-007
 40
0
 40
0
 40
0
 40
0
 40
1
 40
1
 40
1
 40
1
 10
179.3845406941968
 20
-59.85507546188688
 30
0
 10
179.1270006091967
 20
-59.84843421188689
 30
0
 10
178.8493495541968
 20
-59.85222921188688
 30
0
 10
178.7686147241968
 20
-59.75781846688687
 30
0
  0
SPLINE
  5
9F
100
AcDbEntity
  8
0
  6
ByLayer
 62
  256
370
   -1
100
AcDbSpline
210
0
220
0
230
0
 70
    8
 71
    3
 72
    8
 73
    4
 74
    0
 42
1e-007
 43
1e-007
 40
0
 40
0
 40
0
 40
0
 40
1
 40
1
 40
1
 40
1
 10
178.7686147241968
 20
-59.75781846688687
 30
0
 10
179.2245080741968
 20
-59.47537559188687
 30
0
 10
179.6091705391968
 20
-59.16126344188687
 30
0
 10
179.9275773641968
 20
-58.81770209188688
 30
0
  0
SPLINE
  5
A0
100
AcDbEntity
  8
0
  6
ByLayer
 62
  256
370
   -1
100
AcDbSpline
210
0
220
0
230
0
 70
    8
 71
    3
 72
    8
 73
    4
 74
    0
 42
1e-007
 43
1e-007
 40
0
 40
0
 40
0
 40
0
 40
1
 40
1
 40
1
 40
1
 10
179.9275773641968
 20
-58.81770209188688
 30
0
 10
179.5671662141967
 20
-58.86124971688688
 30
0
 10
179.4149791241968
 20
-58.82339459188687
 30
0
 10
179.3278345391968
 20
-58.76096684188687
 30
0
  0
SPLINE
  5
A1
100
AcDbEntity
  8
0
  6
ByLayer
 62
  256
370
   -1
100
AcDbSpline
210
0
220
0
230
0
 70
    8
 71
    3
 72
    8
 73
    4
 74
    0
 42
1e-007
 43
1e-007
 40
0
 40
0
 40
0
 40
0
 40
1
 40
1
 40
1
 40
1
 10
179.3278345391968
 20
-58.76096684188687
 30
0
 10
179.6724572241967
 20
-58.40799389188688
 30
0
 10
180.1086355491968
 20
-58.10994471188688
 30
0
 10
180.3165888991967
 20
-57.67498078688688
 30
0
  0
SPLINE
  5
A2
100
AcDbEntity
  8
0
  6
ByLayer
 62
  256
370
   -1
100
AcDbSpline
210
0
220
0
230
0
 70
    8
 71
    3
 72
    8
 73
    4
 74
    0
 42
1e-007
 43
1e-007
 40
0
 40
0
 40
0
 40
0
 40
1
 40
1
 40
1
 40
1
 10
180.3165888991967
 20
-57.67498078688688
 30
0
 10
180.0489882691968
 20
-57.76719928688688
 30
0
 10
179.8041677591968
 20
-57.80252061688689
 30
0
 10
179.6276838141968
 20
-57.66644203688688
 30
0
  0
SPLINE
  5
A3
100
AcDbEntity
  8
0
  6
ByLayer
 62
  256
370
   -1
100
AcDbSpline
210
0
220
0
230
0
 70
    8
 71
    3
 72
    8
 73
    4
 74
    0
 42
1e-007
 43
1e-007
 40
0
 40
0
 40
0
 40
0
 40
1
 40
1
 40
1
 40
1
 10
179.6276838141968
 20
-57.66644203688688
 30
0
 10
179.7447911891968
 20
-57.40225311188689
 30
0
 10
180.2465243441967
 20
-57.24643041188688
 30
0
 10
180.5353908891968
 20
-56.62904969188688
 30
0
  0
SPLINE
  5
A4
100
AcDbEntity
  8
0
  6
ByLayer
 62
  256
370
   -1
100
AcDbSpline
210
0
220
0
230
0
 70
    8
 71
    3
 72
    8
 73
    4
 74
    0
 42
1e-007
 43
1e-007
 40
0
 40
0
 40
0
 40
0
 40
1
 40
1
 40
1
 40
1
 10
180.5353908891968
 20
-56.62904969188688
 30
0
 10
180.2536779191968
 20
-56.65637369188688
 30
0
 10
179.9548773291967
 20
-56.69052869188688
 30
0
 10
179.8951225241968
 20
-56.62904969188688
 30
0
  0
SPLINE
  5
A5
100
AcDbEntity
  8
0
  6
ByLayer
 62
  256
370
   -1
100
AcDbSpline
210
0
220
0
230
0
 70
    8
 71
    3
 72
    8
 73
    4
 74
    0
 42
1e-007
 43
1e-007
 40
0
 40
0
 40
0
 40
0
 40
1
 40
1
 40
1
 40
1
 10
179.8951225241968
 20
-56.62904969188688
 30
0
 10
180.0261221291968
 20
-56.09609886688688
 30
0
 10
180.2504913841968
 20
-55.79660758688687
 30
0
 10
180.4705254841968
 20
-55.48630941188687
 30
0
  0
SPLINE
  5
A6
100
AcDbEntity
  8
0
  6
ByLayer
 62
  256
370
   -1
100
AcDbSpline
210
0
220
0
230
0
 70
    8
 71
    3
 72
    8
 73
    4
 74
    0
 42
1e-007
 43
1e-007
 40
0
 40
0
 40
0
 40
0
 40
1
 40
1
 40
1
 40
1
 10
180.4705254841968
 20
-55.48630941188687
 30
0
 10
179.8675986541968
 20
-55.47777066188687
 30
0
 10
178.9541105291968
 20
-55.48915566188688
 30
0
 10
178.9954848841968
 20
-55.43763853688688
 30
0
  0
LWPOLYLINE
  5
A7
100
AcDbEntity
  8
0
  6
ByLayer
 62
  256
370
   -1
100
AcDbPolyline
 90
    2
 70
    0
 43
0
 10
161.8199069041968
 20
-56.52403318688688
 10
161.8205305491967
 20
-56.52409011188687
  0
SPLINE
  5
A8
100
AcDbEntity
  8
0
  6
ByLayer
 62
  256
370
   -1
100
AcDbSpline
210
0
220
0
230
0
 70
    8
 71
    3
 72
    8
 73
    4
 74
    0
 42
1e-007
 43
1e-007
 40
0
 40
0
 40
0
 40
0
 40
1
 40
1
 40
1
 40
1
 10
179.3682905041967
 20
-55.05672426688687
 30
0
 10
178.7793507791968
 20
-54.89816031188689
 30
0
 10
178.1767389341967
 20
-55.08215076688688
 30
0
 10
177.7392690441968
 20
-55.21881883688687
 30
0
  0
SPLINE
  5
A9
100
AcDbEntity
  8
0
  6
ByLayer
 62
  256
370
   -1
100
AcDbSpline
210
0
220
0
230
0
 70
    8
 71
    3
 72
    8
 73
    4
 74
    0
 42
1e-007
 43
1e-007
 40
0
 40
0
 40
0
 40
0
 40
1
 40
1
 40
1
 40
1
 10
177.7392690441968
 20
-55.21881883688687
 30
0
 10
177.5428411091967
 20
-55.06382091688688
 30
0
 10
177.7427794191968
 20
-54.86781928688687
 30
0
 10
177.9824033091968
 20
-54.66770893688689
 30
0
  0
SPLINE
  5
AA
100
AcDbEntity
  8
0
  6
ByLayer
 62
  256
370
   -1
100
AcDbSpline
210
0
220
0
230
0
 70
    8
 71
    3
 72
    8
 73
    4
 74
    0
 42
1e-007
 43
1e-007
 40
0
 40
0
 40
0
 40
0
 40
1
 40
1
 40
1
 40
1
 10
177.9824033091968
 20
-54.66770893688689
 30
0
 10
177.4819073241968
 20
-54.73450093688687
 30
0
 10
177.0296445241967
 20
-54.84959316688688
 30
0
 10
176.6208648341967
 20
-55.00810146188687
 30
0
  0
SPLINE
  5
AB
100
AcDbEntity
  8
0
  6
ByLayer
 62
  256
370
   -1
100
AcDbSpline
210
0
220
0
230
0
 70
    8
 71
    3
 72
    8
 73
    4
 74
    0
 42
1e-007
 43
1e-007
 40
0
 40
0
 40
0
 40
0
 40
1
 40
1
 40
1
 40
1
 10
176.6208648341967
 20
-55.00810146188687
 30
0
 10
176.4024499341968
 20
-54.81089428688688
 30
0
 10
176.7626941041968
 20
-54.61367699188688
 30
0
 10
176.9369427941967
 20
-54.41646981688688
 30
0
  0
SPLINE
  5
AC
100
AcDbEntity
  8
0
  6
ByLayer
 62
  256
370
   -1
100
AcDbSpline
210
0
220
0
230
0
 70
    8
 71
    3
 72
    8
 73
    4
 74
    0
 42
1e-007
 43
1e-007
 40
0
 40
0
 40
0
 40
0
 40
1
 40
1
 40
1
 40
1
 10
176.9369427941967
 20
-54.41646981688688
 30
0
 10
176.1637178691967
 20
-54.56317566188688
 30
0
 10
175.8361195541968
 20
-54.76929096688687
 30
0
 10
175.5105401791968
 20
-54.97569216188687
 30
0
  0
SPLINE
  5
AD
100
AcDbEntity
  8
0
  6
ByLayer
 62
  256
370
   -1
100
AcDbSpline
210
0
220
0
230
0
 70
    8
 71
    3
 72
    8
 73
    4
 74
    0
 42
1e-007
 43
1e-007
 40
0
 40
0
 40
0
 40
0
 40
1
 40
1
 40
1
 40
1
 10
175.5105401791968
 20
-54.97569216188687
 30
0
 10
175.2743267291967
 20
-54.74928246188688
 30
0
 10
175.4970173291967
 20
-54.55685698688688
 30
0
 10
175.6564212441967
 20
-54.35976366188688
 30
0
  0
SPLINE
  5
AE
100
AcDbEntity
  8
0
  6
ByLayer
 62
  256
370
   -1
100
AcDbSpline
210
0
220
0
230
0
 70
    8
 71
    3
 72
    8
 73
    4
 74
    0
 42
1e-007
 43
1e-007
 40
0
 40
0
 40
0
 40
0
 40
1
 40
1
 40
1
 40
1
 10
175.6564212441967
 20
-54.35976366188688
 30
0
 10
175.0733979241967
 20
-54.57569916188687
 30
0
 10
174.7731008391968
 20
-54.85447986188689
 30
0
 10
174.4569330641968
 20
-55.12967428688687
 30
0
  0
SPLINE
  5
AF
100
AcDbEntity
  8
0
  6
ByLayer
 62
  256
370
   -1
100
AcDbSpline
210
0
220
0
230
0
 70
    8
 71
    3
 72
    8
 73
    4
 74
    0
 42
1e-007
 43
1e-007
 40
0
 40
0
 40
0
 40
0
 40
1
 40
1
 40
1
 40
1
 10
174.4569330641968
 20
-55.12967428688687
 30
0
 10
174.3497432891968
 20
-54.98500888688688
 30
0
 10
174.1846127191968
 20
-54.87897658688688
 30
0
 10
174.3839906341967
 20
-54.52993146188687
 30
0
  0
SPLINE
  5
B0
100
AcDbEntity
  8
0
  6
ByLayer
 62
  256
370
   -1
100
AcDbSpline
210
0
220
0
230
0
 70
    8
 71
    3
 72
    8
 73
    4
 74
    0
 42
1e-007
 43
1e-007
 40
0
 40
0
 40
0
 40
0
 40
1
 40
1
 40
1
 40
1
 10
174.3839906341967
 20
-54.52993146188687
 30
0
 10
173.9700472141967
 20
-54.76853196688689
 30
0
 10
173.6582829041968
 20
-55.04970351688688
 30
0
 10
173.4276468391968
 20
-55.36469863688689
 30
0
  0
SPLINE
  5
B1
100
AcDbEntity
  8
0
  6
ByLayer
 62
  256
370
   -1
100
AcDbSpline
210
0
220
0
230
0
 70
    8
 71
    3
 72
    8
 73
    4
 74
    0
 42
1e-007
 43
1e-007
 40
0
 40
0
 40
0
 40
0
 40
1
 40
1
 40
1
 40
1
 10
173.4276468391968
 20
-55.36469863688689
 30
0
 10
173.1715311441968
 20
-55.20162748688688
 30
0
 10
173.2750587441967
 20
-54.97860419188689
 30
0
 10
173.2736609191967
 20
-54.77307711188688
 30
0
  0
SPLINE
  5
B2
100
AcDbEntity
  8
0
  6
ByLayer
 62
  256
370
   -1
100
AcDbSpline
210
0
220
0
230
0
 70
    8
 71
    3
 72
    8
 73
    4
 74
    0
 42
1e-007
 43
1e-007
 40
0
 40
0
 40
0
 40
0
 40
1
 40
1
 40
1
 40
1
 10
173.2736609191967
 20
-54.77307711188688
 30
0
 10
172.8434723691967
 20
-55.12301406188688
 30
0
 10
172.5704562741967
 20
-55.49541741188689
 30
0
 10
172.2362685741968
 20
-55.85905431188688
 30
0
  0
SPLINE
  5
B3
100
AcDbEntity
  8
0
  6
ByLayer
 62
  256
370
   -1
100
AcDbSpline
210
0
220
0
230
0
 70
    8
 71
    3
 72
    8
 73
    4
 74
    0
 42
1e-007
 43
1e-007
 40
0
 40
0
 40
0
 40
0
 40
1
 40
1
 40
1
 40
1
 10
172.2362685741968
 20
-55.85905431188688
 30
0
 10
172.1689515991968
 20
-55.81000393688688
 30
0
 10
172.1100089241968
 20
-55.64381076688688
 30
0
 10
172.0579680891967
 20
-55.38088431188688
 30
0
  0
SPLINE
  5
B4
100
AcDbEntity
  8
0
  6
ByLayer
 62
  256
370
   -1
100
AcDbSpline
210
0
220
0
230
0
 70
    8
 71
    3
 72
    8
 73
    4
 74
    0
 42
1e-007
 43
1e-007
 40
0
 40
0
 40
0
 40
0
 40
1
 40
1
 40
1
 40
1
 10
172.0579680891967
 20
-55.38088431188688
 30
0
 10
171.0316482891968
 20
-56.37658731688688
 30
0
 10
169.5814421691968
 20
-58.88449409188689
 30
0
 10
171.6851624691967
 20
-59.87885113688688
 30
0
  0
SPLINE
  5
B5
100
AcDbEntity
  8
0
  6
ByLayer
 62
  256
370
   -1
100
AcDbSpline
210
0
220
0
230
0
 70
    8
 71
    3
 72
    8
 73
    4
 74
    0
 42
1e-007
 43
1e-007
 40
0
 40
0
 40
0
 40
0
 40
1
 40
1
 40
1
 40
1
 10
171.6851624691967
 20
-59.87885113688688
 30
0
 10
173.4746213491968
 20
-58.40192189188688
 30
0
 10
175.6127458541968
 20
-57.32871486688688
 30
0
 10
177.9824918591968
 20
-56.52357778688688
 30
0
  0
LWPOLYLINE
  5
B6
100
AcDbEntity
  8
0
  6
ByLayer
 62
  256
370
   -1
100
AcDbPolyline
 90
    2
 70
    0
 43
0
 10
178.9954848841968
 20
-55.43763853688688
 10
179.3682905041967
 20
-55.05672426688687
  0
SPLINE
  5
B7
100
AcDbEntity
  8
0
  6
ByLayer
 62
  256
370
   -1
100
AcDbSpline
210
0
220
0
230
0
 70
    8
 71
    3
 72
    8
 73
    4
 74
    0
 42
1e-007
 43
1e-007
 40
0
 40
0
 40
0
 40
0
 40
1
 40
1
 40
1
 40
1
 10
173.5899716391968
 20
-76.7997125118869
 30
0
 10
173.5968608291967
 20
-78.00588115688689
 30
0
 10
172.9029830291967
 20
-79.12315572188689
 30
0
 10
171.7713241491968
 20
-79.72808251688687
 30
0
  0
SPLINE
  5
B8
100
AcDbEntity
  8
0
  6
ByLayer
 62
  256
370
   -1
100
AcDbSpline
210
0
220
0
230
0
 70
    8
 71
    3
 72
    8
 73
    4
 74
    0
 42
1e-007
 43
1e-007
 40
0
 40
0
 40
0
 40
0
 40
1
 40
1
 40
1
 40
1
 10
171.7713241491968
 20
-79.72808251688687
 30
0
 10
170.6396640041968
 20
-80.33300804688689
 30
0
 10
169.2434101341968
 20
-80.33300804688689
 30
0
 10
168.1117499891968
 20
-79.72808251688687
 30
0
  0
SPLINE
  5
B9
100
AcDbEntity
  8
0
  6
ByLayer
 62
  256
370
   -1
100
AcDbSpline
210
0
220
0
230
0
 70
    8
 71
    3
 72
    8
 73
    4
 74
    0
 42
1e-007
 43
1e-007
 40
0
 40
0
 40
0
 40
0
 40
1
 40
1
 40
1
 40
1
 10
168.1117499891968
 20
-79.72808251688687
 30
0
 10
166.9800911091968
 20
-79.12315572188689
 30
0
 10
166.2862133091968
 20
-78.00588115688689
 30
0
 10
166.2931012341967
 20
-76.7997125118869
 30
0
  0
SPLINE
  5
BA
100
AcDbEntity
  8
0
  6
ByLayer
 62
  256
370
   -1
100
AcDbSpline
210
0
220
0
230
0
 70
    8
 71
    3
 72
    8
 73
    4
 74
    0
 42
1e-007
 43
1e-007
 40
0
 40
0
 40
0
 40
0
 40
1
 40
1
 40
1
 40
1
 10
166.2931012341967
 20
-76.7997125118869
 30
0
 10
166.2862133091968
 20
-75.59354260188688
 30
0
 10
166.9800911091968
 20
-74.47626803688689
 30
0
 10
168.1117499891968
 20
-73.87134124188688
 30
0
  0
SPLINE
  5
BB
100
AcDbEntity
  8
0
  6
ByLayer
 62
  256
370
   -1
100
AcDbSpline
210
0
220
0
230
0
 70
    8
 71
    3
 72
    8
 73
    4
 74
    0
 42
1e-007
 43
1e-007
 40
0
 40
0
 40
0
 40
0
 40
1
 40
1
 40
1
 40
1
 10
168.1117499891968
 20
-73.87134124188688
 30
0
 10
169.2434101341968
 20
-73.26641571188686
 30
0
 10
170.6396640041968
 20
-73.26641571188686
 30
0
 10
171.7713241491968
 20
-73.87134124188688
 30
0
  0
SPLINE
  5
BC
100
AcDbEntity
  8
0
  6
ByLayer
 62
  256
370
   -1
100
AcDbSpline
210
0
220
0
230
0
 70
    8
 71
    3
 72
    8
 73
    4
 74
    0
 42
1e-007
 43
1e-007
 40
0
 40
0
 40
0
 40
0
 40
1
 40
1
 40
1
 40
1
 10
171.7713241491968
 20
-73.87134124188688
 30
0
 10
172.9029830291967
 20
-74.47626803688689
 30
0
 10
173.5968608291967
 20
-75.59354260188688
 30
0
 10
173.5899716391968
 20
-76.7997125118869
 30
0
  0
LWPOLYLINE
  5
BD
100
AcDbEntity
  8
0
  6
ByLayer
 62
  256
370
   -1
100
AcDbPolyline
 90
    2
 70
    0
 43
0
 10
177.9824918591968
 20
-56.52357778688688
 10
177.9820933841968
 20
-56.52409011188687
  0
SPLINE
  5
BE
100
AcDbEntity
  8
0
  6
ByLayer
 62
  256
370
   -1
100
AcDbSpline
210
0
220
0
230
0
 70
    8
 71
    3
 72
    8
 73
    4
 74
    0
 42
1e-007
 43
1e-007
 40
0
 40
0
 40
0
 40
0
 40
1
 40
1
 40
1
 40
1
 10
167.8304392891968
 20
-67.18897874188688
 30
0
 10
168.8097112091968
 20
-67.82899663688688
 30
0
 10
169.3087815391967
 20
-69.03537021188687
 30
0
 10
169.1394461091968
 20
-70.35316625188689
 30
0
  0
SPLINE
  5
BF
100
AcDbEntity
  8
0
  6
ByLayer
 62
  256
370
   -1
100
AcDbSpline
210
0
220
0
230
0
 70
    8
 71
    3
 72
    8
 73
    4
 74
    0
 42
1e-007
 43
1e-007
 40
0
 40
0
 40
0
 40
0
 40
1
 40
1
 40
1
 40
1
 10
169.1394461091968
 20
-70.35316625188689
 30
0
 10
168.9701094141968
 20
-71.67096102688689
 30
0
 10
168.1581286841967
 20
-72.89971118688688
 30
0
 10
167.0097060241967
 20
-73.57604343688688
 30
0
  0
SPLINE
  5
C0
100
AcDbEntity
  8
0
  6
ByLayer
 62
  256
370
   -1
100
AcDbSpline
210
0
220
0
230
0
 70
    8
 71
    3
 72
    8
 73
    4
 74
    0
 42
1e-007
 43
1e-007
 40
0
 40
0
 40
0
 40
0
 40
1
 40
1
 40
1
 40
1
 10
167.0097060241967
 20
-73.57604343688688
 30
0
 10
165.8612820991968
 20
-74.25237568688686
 30
0
 10
164.5511215991968
 20
-74.27340504688688
 30
0
 10
163.5732930441968
 20
-73.63119996688688
 30
0
  0
SPLINE
  5
C1
100
AcDbEntity
  8
0
  6
ByLayer
 62
  256
370
   -1
100
AcDbSpline
210
0
220
0
230
0
 70
    8
 71
    3
 72
    8
 73
    4
 74
    0
 42
1e-007
 43
1e-007
 40
0
 40
0
 40
0
 40
0
 40
1
 40
1
 40
1
 40
1
 10
163.5732930441968
 20
-73.63119996688688
 30
0
 10
162.5940198591967
 20
-72.99118207188687
 30
0
 10
162.0949507941967
 20
-71.78480849688688
 30
0
 10
162.2642862241968
 20
-70.46701245688688
 30
0
  0
SPLINE
  5
C2
100
AcDbEntity
  8
0
  6
ByLayer
 62
  256
370
   -1
100
AcDbSpline
210
0
220
0
230
0
 70
    8
 71
    3
 72
    8
 73
    4
 74
    0
 42
1e-007
 43
1e-007
 40
0
 40
0
 40
0
 40
0
 40
1
 40
1
 40
1
 40
1
 10
162.2642862241968
 20
-70.46701245688688
 30
0
 10
162.4336216541967
 20
-69.14921768188687
 30
0
 10
163.2456036491967
 20
-67.92046752188688
 30
0
 10
164.3940263091967
 20
-67.24413527188688
 30
0
  0
SPLINE
  5
C3
100
AcDbEntity
  8
0
  6
ByLayer
 62
  256
370
   -1
100
AcDbSpline
210
0
220
0
230
0
 70
    8
 71
    3
 72
    8
 73
    4
 74
    0
 42
1e-007
 43
1e-007
 40
0
 40
0
 40
0
 40
0
 40
1
 40
1
 40
1
 40
1
 10
164.3940263091967
 20
-67.24413527188688
 30
0
 10
165.5424502341968
 20
-66.56780302188687
 30
0
 10
166.8526107341968
 20
-66.54677366188687
 30
0
 10
167.8304392891968
 20
-67.18897874188688
 30
0
  0
LWPOLYLINE
  5
C4
100
AcDbEntity
  8
0
  6
ByLayer
 62
  256
370
   -1
100
AcDbPolyline
 90
    1
 70
    1
 43
0
 10
173.5899716391968
 20
-76.7997125118869
  0
SPLINE
  5
C5
100
AcDbEntity
  8
0
  6
ByLayer
 62
  256
370
   -1
100
AcDbSpline
210
0
220
0
230
0
 70
    8
 71
    3
 72
    8
 73
    4
 74
    0
 42
1e-007
 43
1e-007
 40
0
 40
0
 40
0
 40
0
 40
1
 40
1
 40
1
 40
1
 10
171.9107815441967
 20
-67.00966499188688
 30
0
 10
170.9315248041968
 20
-67.64969174188688
 30
0
 10
170.4324683891968
 20
-68.85606025688686
 30
0
 10
170.6018076141967
 20
-70.17384617688688
 30
0
  0
SPLINE
  5
C6
100
AcDbEntity
  8
0
  6
ByLayer
 62
  256
370
   -1
100
AcDbSpline
210
0
220
0
230
0
 70
    8
 71
    3
 72
    8
 73
    4
 74
    0
 42
1e-007
 43
1e-007
 40
0
 40
0
 40
0
 40
0
 40
1
 40
1
 40
1
 40
1
 10
170.6018076141967
 20
-70.17384617688688
 30
0
 10
170.7711468391967
 20
-71.49163083188689
 30
0
 10
171.5831225091968
 20
-72.72036960688688
 30
0
 10
172.7315350491968
 20
-73.39670185688689
 30
0
  0
SPLINE
  5
C7
100
AcDbEntity
  8
0
  6
ByLayer
 62
  256
370
   -1
100
AcDbSpline
210
0
220
0
230
0
 70
    8
 71
    3
 72
    8
 73
    4
 74
    0
 42
1e-007
 43
1e-007
 40
0
 40
0
 40
0
 40
0
 40
1
 40
1
 40
1
 40
1
 10
172.7315350491968
 20
-73.39670185688689
 30
0
 10
173.8799475891968
 20
-74.07303410688688
 30
0
 10
175.1900979691968
 20
-74.09407358688688
 30
0
 10
176.1679277891967
 20
-73.45188621688688
 30
0
  0
SPLINE
  5
C8
100
AcDbEntity
  8
0
  6
ByLayer
 62
  256
370
   -1
100
AcDbSpline
210
0
220
0
230
0
 70
    8
 71
    3
 72
    8
 73
    4
 74
    0
 42
1e-007
 43
1e-007
 40
0
 40
0
 40
0
 40
0
 40
1
 40
1
 40
1
 40
1
 10
176.1679277891967
 20
-73.45188621688688
 30
0
 10
177.1471845291967
 20
-72.81185946688687
 30
0
 10
177.6462409441968
 20
-71.60549095188686
 30
0
 10
177.4769017191967
 20
-70.28770503188689
 30
0
  0
SPLINE
  5
C9
100
AcDbEntity
  8
0
  6
ByLayer
 62
  256
370
   -1
100
AcDbSpline
210
0
220
0
230
0
 70
    8
 71
    3
 72
    8
 73
    4
 74
    0
 42
1e-007
 43
1e-007
 40
0
 40
0
 40
0
 40
0
 40
1
 40
1
 40
1
 40
1
 10
177.4769017191967
 20
-70.28770503188689
 30
0
 10
177.3075624941967
 20
-68.96992037688689
 30
0
 10
176.4955868241968
 20
-67.74118160188686
 30
0
 10
175.3471742841967
 20
-67.06484935188688
 30
0
  0
SPLINE
  5
CA
100
AcDbEntity
  8
0
  6
ByLayer
 62
  256
370
   -1
100
AcDbSpline
210
0
220
0
230
0
 70
    8
 71
    3
 72
    8
 73
    4
 74
    0
 42
1e-007
 43
1e-007
 40
0
 40
0
 40
0
 40
0
 40
1
 40
1
 40
1
 40
1
 10
175.3471742841967
 20
-67.06484935188688
 30
0
 10
174.1987630091968
 20
-66.38851710188688
 30
0
 10
172.8886113641967
 20
-66.36747762188689
 30
0
 10
171.9107815441967
 20
-67.00966499188688
 30
0
  0
LWPOLYLINE
  5
CB
100
AcDbEntity
  8
0
  6
ByLayer
 62
  256
370
   -1
100
AcDbPolyline
 90
    1
 70
    1
 43
0
 10
167.8304392891968
 20
-67.18897874188688
  0
SPLINE
  5
CC
100
AcDbEntity
  8
0
  6
ByLayer
 62
  256
370
   -1
100
AcDbSpline
210
0
220
0
230
0
 70
    8
 71
    3
 72
    8
 73
    4
 74
    0
 42
1e-007
 43
1e-007
 40
0
 40
0
 40
0
 40
0
 40
1
 40
1
 40
1
 40
1
 10
160.2748865041968
 20
-68.80827741188688
 30
0
 10
161.9070464291968
 20
-68.37077083688688
 30
0
 10
160.8259027941968
 20
-75.56060706188688
 30
0
 10
159.4978969391968
 20
-74.97068316688689
 30
0
  0
SPLINE
  5
CD
100
AcDbEntity
  8
0
  6
ByLayer
 62
  256
370
   -1
100
AcDbSpline
210
0
220
0
230
0
 70
    8
 71
    3
 72
    8
 73
    4
 74
    0
 42
1e-007
 43
1e-007
 40
0
 40
0
 40
0
 40
0
 40
1
 40
1
 40
1
 40
1
 10
159.4978969391968
 20
-74.97068316688689
 30
0
 10
158.0371116241968
 20
-73.79576128688689
 30
0
 10
157.5666049941967
 20
-70.35482466688688
 30
0
 10
160.2748865041968
 20
-68.80827741188688
 30
0
  0
LWPOLYLINE
  5
CE
100
AcDbEntity
  8
0
  6
ByLayer
 62
  256
370
   -1
100
AcDbPolyline
 90
    1
 70
    1
 43
0
 10
171.9107815441967
 20
-67.00966499188688
  0
SPLINE
  5
CF
100
AcDbEntity
  8
0
  6
ByLayer
 62
  256
370
   -1
100
AcDbSpline
210
0
220
0
230
0
 70
    8
 71
    3
 72
    8
 73
    4
 74
    0
 42
1e-007
 43
1e-007
 40
0
 40
0
 40
0
 40
0
 40
1
 40
1
 40
1
 40
1
 10
179.1368435741968
 20
-68.71862939188688
 30
0
 10
177.5045040191968
 20
-68.28124678688687
 30
0
 10
178.5858272841968
 20
-75.47140558688687
 30
0
 10
179.9138344041967
 20
-74.88148169188689
 30
0
  0
SPLINE
  5
D0
100
AcDbEntity
  8
0
  6
ByLayer
 62
  256
370
   -1
100
AcDbSpline
210
0
220
0
230
0
 70
    8
 71
    3
 72
    8
 73
    4
 74
    0
 42
1e-007
 43
1e-007
 40
0
 40
0
 40
0
 40
0
 40
1
 40
1
 40
1
 40
1
 10
179.9138344041967
 20
-74.88148169188689
 30
0
 10
181.3746197191968
 20
-73.70641686688688
 30
0
 10
181.8451263491968
 20
-70.26516779188688
 30
0
 10
179.1368435741968
 20
-68.71862939188688
 30
0
  0
LWPOLYLINE
  5
D1
100
AcDbEntity
  8
0
  6
ByLayer
 62
  256
370
   -1
100
AcDbPolyline
 90
    1
 70
    1
 43
0
 10
160.2748865041968
 20
-68.80827741188688
  0
SPLINE
  5
D2
100
AcDbEntity
  8
0
  6
ByLayer
 62
  256
370
   -1
100
AcDbSpline
210
0
220
0
230
0
 70
    8
 71
    3
 72
    8
 73
    4
 74
    0
 42
1e-007
 43
1e-007
 40
0
 40
0
 40
0
 40
0
 40
1
 40
1
 40
1
 40
1
 10
173.5912657341968
 20
-63.36446376188687
 30
0
 10
176.4079855741968
 20
-62.88884526688688
 30
0
 10
178.7517775741968
 20
-64.56233653688687
 30
0
 10
178.6571922591968
 20
-67.61668536188689
 30
0
  0
SPLINE
  5
D3
100
AcDbEntity
  8
0
  6
ByLayer
 62
  256
370
   -1
100
AcDbSpline
210
0
220
0
230
0
 70
    8
 71
    3
 72
    8
 73
    4
 74
    0
 42
1e-007
 43
1e-007
 40
0
 40
0
 40
0
 40
0
 40
1
 40
1
 40
1
 40
1
 10
178.6571922591968
 20
-67.61668536188689
 30
0
 10
178.5645373341968
 20
-68.78761363688689
 30
0
 10
172.5535153941968
 20
-63.53879594188689
 30
0
 10
173.5912657341968
 20
-63.36446376188687
 30
0
  0
LWPOLYLINE
  5
D4
100
AcDbEntity
  8
0
  6
ByLayer
 62
  256
370
   -1
100
AcDbPolyline
 90
    1
 70
    1
 43
0
 10
179.1368435741968
 20
-68.71862939188688
  0
SPLINE
  5
D5
100
AcDbEntity
  8
0
  6
ByLayer
 62
  256
370
   -1
100
AcDbSpline
210
0
220
0
230
0
 70
    8
 71
    3
 72
    8
 73
    4
 74
    0
 42
1e-007
 43
1e-007
 40
0
 40
0
 40
0
 40
0
 40
1
 40
1
 40
1
 40
1
 10
165.8088098991967
 20
-63.27480688688689
 30
0
 10
162.9918661541967
 20
-62.79918839188688
 30
0
 10
160.6482980591967
 20
-64.47304018688689
 30
0
 10
160.7428833741968
 20
-67.52712336188688
 30
0
  0
SPLINE
  5
D6
100
AcDbEntity
  8
0
  6
ByLayer
 62
  256
370
   -1
100
AcDbSpline
210
0
220
0
230
0
 70
    8
 71
    3
 72
    8
 73
    4
 74
    0
 42
1e-007
 43
1e-007
 40
0
 40
0
 40
0
 40
0
 40
1
 40
1
 40
1
 40
1
 10
160.7428833741968
 20
-67.52712336188688
 30
0
 10
160.8355408291967
 20
-68.69800356688687
 30
0
 10
166.8465602391967
 20
-63.44918713688689
 30
0
 10
165.8088098991967
 20
-63.27480688688689
 30
0
  0
LWPOLYLINE
  5
D7
100
AcDbEntity
  8
0
  6
ByLayer
 62
  256
370
   -1
100
AcDbPolyline
 90
    1
 70
    1
 43
0
 10
173.5912657341968
 20
-63.36446376188687
  0
SPLINE
  5
D8
100
AcDbEntity
  8
0
  6
ByLayer
 62
  256
370
   -1
100
AcDbSpline
210
0
220
0
230
0
 70
    8
 71
    3
 72
    8
 73
    4
 74
    0
 42
1e-007
 43
1e-007
 40
0
 40
0
 40
0
 40
0
 40
1
 40
1
 40
1
 40
1
 10
169.8549161941968
 20
-62.56250436188688
 30
0
 10
168.1737602891967
 20
-62.51876698688688
 30
0
 10
166.5603375441967
 20
-63.81022446188689
 30
0
 10
166.5564375491968
 20
-64.55929041688688
 30
0
  0
SPLINE
  5
D9
100
AcDbEntity
  8
0
  6
ByLayer
 62
  256
370
   -1
100
AcDbSpline
210
0
220
0
230
0
 70
    8
 71
    3
 72
    8
 73
    4
 74
    0
 42
1e-007
 43
1e-007
 40
0
 40
0
 40
0
 40
0
 40
1
 40
1
 40
1
 40
1
 10
166.5564375491968
 20
-64.55929041688688
 30
0
 10
166.5517469291968
 20
-65.46945538688689
 30
0
 10
167.8856109991968
 20
-66.40137456188687
 30
0
 10
169.8663467341968
 20
-66.42499843688688
 30
0
  0
SPLINE
  5
DA
100
AcDbEntity
  8
0
  6
ByLayer
 62
  256
370
   -1
100
AcDbSpline
210
0
220
0
230
0
 70
    8
 71
    3
 72
    8
 73
    4
 74
    0
 42
1e-007
 43
1e-007
 40
0
 40
0
 40
0
 40
0
 40
1
 40
1
 40
1
 40
1
 10
169.8663467341968
 20
-66.42499843688688
 30
0
 10
171.8890867941968
 20
-66.4395143118869
 30
0
 10
173.1797966541967
 20
-65.67907221188689
 30
0
 10
173.1862962241968
 20
-64.73976164188687
 30
0
  0
SPLINE
  5
DB
100
AcDbEntity
  8
0
  6
ByLayer
 62
  256
370
   -1
100
AcDbSpline
210
0
220
0
230
0
 70
    8
 71
    3
 72
    8
 73
    4
 74
    0
 42
1e-007
 43
1e-007
 40
0
 40
0
 40
0
 40
0
 40
1
 40
1
 40
1
 40
1
 10
173.1862962241968
 20
-64.73976164188687
 30
0
 10
173.1936876191968
 20
-63.67555888688688
 30
0
 10
171.3466320241967
 20
-62.54605303688687
 30
0
 10
169.8548706541967
 20
-62.56245629188688
 30
0
  0
LWPOLYLINE
  5
DC
100
AcDbEntity
  8
0
  6
ByLayer
 62
  256
370
   -1
100
AcDbPolyline
 90
    1
 70
    1
 43
0
 10
165.8088098991967
 20
-63.27480688688689
  0
SPLINE
  5
DD
100
AcDbEntity
  8
0
  6
ByLayer
 62
  256
370
   -1
100
AcDbSpline
210
0
220
0
230
0
 70
    8
 71
    3
 72
    8
 73
    4
 74
    0
 42
1e-007
 43
1e-007
 40
0
 40
0
 40
0
 40
0
 40
1
 40
1
 40
1
 40
1
 10
169.9575696791968
 20
-81.22676976188687
 30
0
 10
171.4232859641968
 20
-81.16282401188688
 30
0
 10
173.3900371241967
 20
-81.69889559188688
 30
0
 10
173.3938915791967
 20
-82.41003178688689
 30
0
  0
SPLINE
  5
DE
100
AcDbEntity
  8
0
  6
ByLayer
 62
  256
370
   -1
100
AcDbSpline
210
0
220
0
230
0
 70
    8
 71
    3
 72
    8
 73
    4
 74
    0
 42
1e-007
 43
1e-007
 40
0
 40
0
 40
0
 40
0
 40
1
 40
1
 40
1
 40
1
 10
173.3938915791967
 20
-82.41003178688689
 30
0
 10
173.4182200591968
 20
-83.10059781688689
 30
0
 10
171.6102162791967
 20
-84.66085514188687
 30
0
 10
169.8603405141967
 20
-84.63068489188687
 30
0
  0
SPLINE
  5
DF
100
AcDbEntity
  8
0
  6
ByLayer
 62
  256
370
   -1
100
AcDbSpline
210
0
220
0
230
0
 70
    8
 71
    3
 72
    8
 73
    4
 74
    0
 42
1e-007
 43
1e-007
 40
0
 40
0
 40
0
 40
0
 40
1
 40
1
 40
1
 40
1
 10
169.8603405141967
 20
-84.63068489188687
 30
0
 10
168.0481091041968
 20
-84.70886189188688
 30
0
 10
166.2710674641968
 20
-83.14618588688687
 30
0
 10
166.2943333441968
 20
-82.60453439188689
 30
0
  0
SPLINE
  5
E0
100
AcDbEntity
  8
0
  6
ByLayer
 62
  256
370
   -1
100
AcDbSpline
210
0
220
0
230
0
 70
    8
 71
    3
 72
    8
 73
    4
 74
    0
 42
1e-007
 43
1e-007
 40
0
 40
0
 40
0
 40
0
 40
1
 40
1
 40
1
 40
1
 10
166.2943333441968
 20
-82.60453439188689
 30
0
 10
166.2672117441967
 20
-81.81037371688689
 30
0
 10
168.5009980791968
 20
-81.19032764188687
 30
0
 10
169.9575696791968
 20
-81.22676976188687
 30
0
  0
LWPOLYLINE
  5
E1
100
AcDbEntity
  8
0
  6
ByLayer
 62
  256
370
   -1
100
AcDbPolyline
 90
    1
 70
    1
 43
0
 10
169.8548706541967
 20
-62.56245629188688
  0
SPLINE
  5
E2
100
AcDbEntity
  8
0
  6
ByLayer
 62
  256
370
   -1
100
AcDbSpline
210
0
220
0
230
0
 70
    8
 71
    3
 72
    8
 73
    4
 74
    0
 42
1e-007
 43
1e-007
 40
0
 40
0
 40
0
 40
0
 40
1
 40
1
 40
1
 40
1
 10
164.5437845991967
 20
-77.01211866188687
 30
0
 10
165.5873185191967
 20
-78.26933511688688
 30
0
 10
166.0630242991967
 20
-80.47811113688688
 30
0
 10
165.1921654091967
 20
-81.12922814188687
 30
0
  0
SPLINE
  5
E3
100
AcDbEntity
  8
0
  6
ByLayer
 62
  256
370
   -1
100
AcDbSpline
210
0
220
0
230
0
 70
    8
 71
    3
 72
    8
 73
    4
 74
    0
 42
1e-007
 43
1e-007
 40
0
 40
0
 40
0
 40
0
 40
1
 40
1
 40
1
 40
1
 10
165.1921654091967
 20
-81.12922814188687
 30
0
 10
164.3682860891967
 20
-81.62626941188687
 30
0
 10
162.3675114891967
 20
-81.42157596688688
 30
0
 10
160.9454124041968
 20
-79.37863259188688
 30
0
  0
SPLINE
  5
E4
100
AcDbEntity
  8
0
  6
ByLayer
 62
  256
370
   -1
100
AcDbSpline
210
0
220
0
230
0
 70
    8
 71
    3
 72
    8
 73
    4
 74
    0
 42
1e-007
 43
1e-007
 40
0
 40
0
 40
0
 40
0
 40
1
 40
1
 40
1
 40
1
 10
160.9454124041968
 20
-79.37863259188688
 30
0
 10
159.9863336791968
 20
-77.66434633688689
 30
0
 10
160.1099229141968
 20
-75.91989868688688
 30
0
 10
160.7833216291968
 20
-75.40743074188688
 30
0
  0
SPLINE
  5
E5
100
AcDbEntity
  8
0
  6
ByLayer
 62
  256
370
   -1
100
AcDbSpline
210
0
220
0
230
0
 70
    8
 71
    3
 72
    8
 73
    4
 74
    0
 42
1e-007
 43
1e-007
 40
0
 40
0
 40
0
 40
0
 40
1
 40
1
 40
1
 40
1
 10
160.7833216291968
 20
-75.40743074188688
 30
0
 10
161.7903210841967
 20
-74.79401706188688
 30
0
 10
163.3462293391967
 20
-75.6225604368869
 30
0
 10
164.5438339341968
 20
-77.01211866188687
 30
0
  0
LWPOLYLINE
  5
E6
100
AcDbEntity
  8
0
  6
ByLayer
 62
  256
370
   -1
100
AcDbPolyline
 90
    1
 70
    1
 43
0
 10
169.9575696791968
 20
-81.22676976188687
  0
SPLINE
  5
E7
100
AcDbEntity
  8
0
  6
ByLayer
 62
  256
370
   -1
100
AcDbSpline
210
0
220
0
230
0
 70
    8
 71
    3
 72
    8
 73
    4
 74
    0
 42
1e-007
 43
1e-007
 40
0
 40
0
 40
0
 40
0
 40
1
 40
1
 40
1
 40
1
 10
175.1624602491968
 20
-76.61359559188688
 30
0
 10
174.0333971491967
 20
-77.93609616688688
 30
0
 10
173.4046946791968
 20
-80.34816021688688
 30
0
 10
174.2283513591968
 20
-81.12501569188687
 30
0
  0
SPLINE
  5
E8
100
AcDbEntity
  8
0
  6
ByLayer
 62
  256
370
   -1
100
AcDbSpline
210
0
220
0
230
0
 70
    8
 71
    3
 72
    8
 73
    4
 74
    0
 42
1e-007
 43
1e-007
 40
0
 40
0
 40
0
 40
0
 40
1
 40
1
 40
1
 40
1
 10
174.2283513591968
 20
-81.12501569188687
 30
0
 10
175.0158758441968
 20
-81.72856363688688
 30
0
 10
177.1299729391968
 20
-81.64420078688688
 30
0
 10
178.6916192341968
 20
-79.47734054188687
 30
0
  0
SPLINE
  5
E9
100
AcDbEntity
  8
0
  6
ByLayer
 62
  256
370
   -1
100
AcDbSpline
210
0
220
0
230
0
 70
    8
 71
    3
 72
    8
 73
    4
 74
    0
 42
1e-007
 43
1e-007
 40
0
 40
0
 40
0
 40
0
 40
1
 40
1
 40
1
 40
1
 10
178.6916192341968
 20
-79.47734054188687
 30
0
 10
179.8255690291968
 20
-78.02202508688687
 30
0
 10
179.4456136291967
 20
-75.59163118688689
 30
0
 10
178.7978956791968
 20
-74.94620541688687
 30
0
  0
SPLINE
  5
EA
100
AcDbEntity
  8
0
  6
ByLayer
 62
  256
370
   -1
100
AcDbSpline
210
0
220
0
230
0
 70
    8
 71
    3
 72
    8
 73
    4
 74
    0
 42
1e-007
 43
1e-007
 40
0
 40
0
 40
0
 40
0
 40
1
 40
1
 40
1
 40
1
 10
178.7978956791968
 20
-74.94620541688687
 30
0
 10
177.8357240291968
 20
-74.20198694188689
 30
0
 10
176.4544629391968
 20
-75.15442821188688
 30
0
 10
175.1624513941968
 20
-76.61324518688687
 30
0
  0
LWPOLYLINE
  5
EB
100
AcDbEntity
  8
0
  6
ByLayer
 62
  256
370
   -1
100
AcDbPolyline
 90
    1
 70
    1
 43
0
 10
164.5438339341968
 20
-77.01211866188687
  0
SPLINE
  5
EC
100
AcDbEntity
  8
0
  6
ByLayer
 62
  256
370
   -1
100
AcDbSpline
210
0
220
0
230
0
 70
    8
 71
    3
 72
    8
 73
    4
 74
    0
 42
1e-007
 43
1e-007
 40
0
 40
0
 40
0
 40
0
 40
1
 40
1
 40
1
 40
1
 10
276.8205305491967
 20
-55.52409011188687
 30
0
 10
279.8664506791968
 20
-57.09444213688688
 30
0
 10
281.6372166541968
 20
-58.36475134188689
 30
0
 10
282.6072781091967
 20
-59.44665903688688
 30
0
  0
SPLINE
  5
ED
100
AcDbEntity
  8
0
  6
ByLayer
 62
  256
370
   -1
100
AcDbSpline
210
0
220
0
230
0
 70
    8
 71
    3
 72
    8
 73
    4
 74
    0
 42
1e-007
 43
1e-007
 40
0
 40
0
 40
0
 40
0
 40
1
 40
1
 40
1
 40
1
 10
282.6072781091967
 20
-59.44665903688688
 30
0
 10
282.1105024891968
 20
-61.43779054188688
 30
0
 10
279.5188603041968
 20
-61.52866181688689
 30
0
 10
278.5712133841968
 20
-61.47280953688688
 30
0
  0
SPLINE
  5
EE
100
AcDbEntity
  8
0
  6
ByLayer
 62
  256
370
   -1
100
AcDbSpline
210
0
220
0
230
0
 70
    8
 71
    3
 72
    8
 73
    4
 74
    0
 42
1e-007
 43
1e-007
 40
0
 40
0
 40
0
 40
0
 40
1
 40
1
 40
1
 40
1
 10
278.5712133841968
 20
-61.47280953688688
 30
0
 10
278.7652428791968
 20
-61.38248853688687
 30
0
 10
278.9271363141968
 20
-61.27431206188687
 30
0
 10
278.9845420141967
 20
-61.10809991688689
 30
0
  0
SPLINE
  5
EF
100
AcDbEntity
  8
0
  6
ByLayer
 62
  256
370
   -1
100
AcDbSpline
210
0
220
0
230
0
 70
    8
 71
    3
 72
    8
 73
    4
 74
    0
 42
1e-007
 43
1e-007
 40
0
 40
0
 40
0
 40
0
 40
1
 40
1
 40
1
 40
1
 10
278.9845420141967
 20
-61.10809991688689
 30
0
 10
278.7467561691968
 20
-60.93910856688687
 30
0
 10
277.9036235491968
 20
-61.09026341688687
 30
0
 10
277.3149975441967
 20
-60.75960506688688
 30
0
  0
SPLINE
  5
F0
100
AcDbEntity
  8
0
  6
ByLayer
 62
  256
370
   -1
100
AcDbSpline
210
0
220
0
230
0
 70
    8
 71
    3
 72
    8
 73
    4
 74
    0
 42
1e-007
 43
1e-007
 40
0
 40
0
 40
0
 40
0
 40
1
 40
1
 40
1
 40
1
 10
277.3149975441967
 20
-60.75960506688688
 30
0
 10
277.5411099691968
 20
-60.71273681688687
 30
0
 10
277.6468753541967
 20
-60.66710194188688
 30
0
 10
277.7526407391968
 20
-60.50026488688688
 30
0
  0
SPLINE
  5
F1
100
AcDbEntity
  8
0
  6
ByLayer
 62
  256
370
   -1
100
AcDbSpline
210
0
220
0
230
0
 70
    8
 71
    3
 72
    8
 73
    4
 74
    0
 42
1e-007
 43
1e-007
 40
0
 40
0
 40
0
 40
0
 40
1
 40
1
 40
1
 40
1
 10
277.7526407391968
 20
-60.50026488688688
 30
0
 10
277.1965138491968
 20
-60.32289544188689
 30
0
 10
276.5974882791968
 20
-60.17005181688687
 30
0
 10
276.2451908391968
 20
-59.87622394188689
 30
0
  0
SPLINE
  5
F2
100
AcDbEntity
  8
0
  6
ByLayer
 62
  256
370
   -1
100
AcDbSpline
210
0
220
0
230
0
 70
    8
 71
    3
 72
    8
 73
    4
 74
    0
 42
1e-007
 43
1e-007
 40
0
 40
0
 40
0
 40
0
 40
1
 40
1
 40
1
 40
1
 10
276.2451908391968
 20
-59.87622394188689
 30
0
 10
276.4353165441968
 20
-59.87907019188687
 30
0
 10
276.6128276691967
 20
-59.91872794188687
 30
0
 10
276.8611168091968
 20
-59.74654879188687
 30
0
  0
SPLINE
  5
F3
100
AcDbEntity
  8
0
  6
ByLayer
 62
  256
370
   -1
100
AcDbSpline
210
0
220
0
230
0
 70
    8
 71
    3
 72
    8
 73
    4
 74
    0
 42
1e-007
 43
1e-007
 40
0
 40
0
 40
0
 40
0
 40
1
 40
1
 40
1
 40
1
 10
276.8611168091968
 20
-59.74654879188687
 30
0
 10
276.3629964941968
 20
-59.47811958688689
 30
0
 10
275.8314801791968
 20
-59.26537188688688
 30
0
 10
275.4185310491968
 20
-58.85507546188688
 30
0
  0
SPLINE
  5
F4
100
AcDbEntity
  8
0
  6
ByLayer
 62
  256
370
   -1
100
AcDbSpline
210
0
220
0
230
0
 70
    8
 71
    3
 72
    8
 73
    4
 74
    0
 42
1e-007
 43
1e-007
 40
0
 40
0
 40
0
 40
0
 40
1
 40
1
 40
1
 40
1
 10
275.4185310491968
 20
-58.85507546188688
 30
0
 10
275.6760723991968
 20
-58.84843421188689
 30
0
 10
275.9537234541967
 20
-58.85222921188688
 30
0
 10
276.0344570191968
 20
-58.75781846688687
 30
0
  0
SPLINE
  5
F5
100
AcDbEntity
  8
0
  6
ByLayer
 62
  256
370
   -1
100
AcDbSpline
210
0
220
0
230
0
 70
    8
 71
    3
 72
    8
 73
    4
 74
    0
 42
1e-007
 43
1e-007
 40
0
 40
0
 40
0
 40
0
 40
1
 40
1
 40
1
 40
1
 10
276.0344570191968
 20
-58.75781846688687
 30
0
 10
275.5785649341968
 20
-58.47537559188687
 30
0
 10
275.1939024691968
 20
-58.16126344188687
 30
0
 10
274.8754943791968
 20
-57.81770209188688
 30
0
  0
SPLINE
  5
F6
100
AcDbEntity
  8
0
  6
ByLayer
 62
  256
370
   -1
100
AcDbSpline
210
0
220
0
230
0
 70
    8
 71
    3
 72
    8
 73
    4
 74
    0
 42
1e-007
 43
1e-007
 40
0
 40
0
 40
0
 40
0
 40
1
 40
1
 40
1
 40
1
 10
274.8754943791968
 20
-57.81770209188688
 30
0
 10
275.2359055291967
 20
-57.86124971688688
 30
0
 10
275.3880938841968
 20
-57.82339459188687
 30
0
 10
275.4752372041968
 20
-57.76096684188687
 30
0
  0
SPLINE
  5
F7
100
AcDbEntity
  8
0
  6
ByLayer
 62
  256
370
   -1
100
AcDbSpline
210
0
220
0
230
0
 70
    8
 71
    3
 72
    8
 73
    4
 74
    0
 42
1e-007
 43
1e-007
 40
0
 40
0
 40
0
 40
0
 40
1
 40
1
 40
1
 40
1
 10
275.4752372041968
 20
-57.76096684188687
 30
0
 10
275.1306145191968
 20
-57.40799389188688
 30
0
 10
274.6944374591968
 20
-57.10994471188688
 30
0
 10
274.4864828441968
 20
-56.67498078688688
 30
0
  0
SPLINE
  5
F8
100
AcDbEntity
  8
0
  6
ByLayer
 62
  256
370
   -1
100
AcDbSpline
210
0
220
0
230
0
 70
    8
 71
    3
 72
    8
 73
    4
 74
    0
 42
1e-007
 43
1e-007
 40
0
 40
0
 40
0
 40
0
 40
1
 40
1
 40
1
 40
1
 10
274.4864828441968
 20
-56.67498078688688
 30
0
 10
274.7540834741968
 20
-56.76719928688688
 30
0
 10
274.9989039841968
 20
-56.80252061688689
 30
0
 10
275.1753879291968
 20
-56.66644203688688
 30
0
  0
SPLINE
  5
F9
100
AcDbEntity
  8
0
  6
ByLayer
 62
  256
370
   -1
100
AcDbSpline
210
0
220
0
230
0
 70
    8
 71
    3
 72
    8
 73
    4
 74
    0
 42
1e-007
 43
1e-007
 40
0
 40
0
 40
0
 40
0
 40
1
 40
1
 40
1
 40
1
 10
275.1753879291968
 20
-56.66644203688688
 30
0
 10
275.0582818191967
 20
-56.40225311188689
 30
0
 10
274.5565486641967
 20
-56.24643041188688
 30
0
 10
274.2676821191968
 20
-55.62904969188688
 30
0
  0
SPLINE
  5
FA
100
AcDbEntity
  8
0
  6
ByLayer
 62
  256
370
   -1
100
AcDbSpline
210
0
220
0
230
0
 70
    8
 71
    3
 72
    8
 73
    4
 74
    0
 42
1e-007
 43
1e-007
 40
0
 40
0
 40
0
 40
0
 40
1
 40
1
 40
1
 40
1
 10
274.2676821191968
 20
-55.62904969188688
 30
0
 10
274.5493938241967
 20
-55.65637369188688
 30
0
 10
274.8481944141968
 20
-55.69052869188688
 30
0
 10
274.9079492191968
 20
-55.62904969188688
 30
0
  0
SPLINE
  5
FB
100
AcDbEntity
  8
0
  6
ByLayer
 62
  256
370
   -1
100
AcDbSpline
210
0
220
0
230
0
 70
    8
 71
    3
 72
    8
 73
    4
 74
    0
 42
1e-007
 43
1e-007
 40
0
 40
0
 40
0
 40
0
 40
1
 40
1
 40
1
 40
1
 10
274.9079492191968
 20
-55.62904969188688
 30
0
 10
274.7771874341968
 20
-55.09631771188689
 30
0
 10
274.5528282991968
 20
-54.79683528688687
 30
0
 10
274.3327701641967
 20
-54.48653711188687
 30
0
  0
SPLINE
  5
FC
100
AcDbEntity
  8
0
  6
ByLayer
 62
  256
370
   -1
100
AcDbSpline
210
0
220
0
230
0
 70
    8
 71
    3
 72
    8
 73
    4
 74
    0
 42
1e-007
 43
1e-007
 40
0
 40
0
 40
0
 40
0
 40
1
 40
1
 40
1
 40
1
 10
274.3327701641967
 20
-54.48653711188687
 30
0
 10
274.9356969941967
 20
-54.47799836188688
 30
0
 10
275.8491863841968
 20
-54.48938336188687
 30
0
 10
275.8078107641968
 20
-54.43786623688688
 30
0
  0
SPLINE
  5
FD
100
AcDbEntity
  8
0
  6
ByLayer
 62
  256
370
   -1
100
AcDbSpline
210
0
220
0
230
0
 70
    8
 71
    3
 72
    8
 73
    4
 74
    0
 42
1e-007
 43
1e-007
 40
0
 40
0
 40
0
 40
0
 40
1
 40
1
 40
1
 40
1
 10
275.4350051441967
 20
-54.05696208688688
 30
0
 10
276.0239461341968
 20
-53.89839686688687
 30
0
 10
276.6265579791967
 20
-54.08238858688689
 30
0
 10
277.0640266041968
 20
-54.21904653688687
 30
0
  0
SPLINE
  5
FE
100
AcDbEntity
  8
0
  6
ByLayer
 62
  256
370
   -1
100
AcDbSpline
210
0
220
0
230
0
 70
    8
 71
    3
 72
    8
 73
    4
 74
    0
 42
1e-007
 43
1e-007
 40
0
 40
0
 40
0
 40
0
 40
1
 40
1
 40
1
 40
1
 10
277.0640266041968
 20
-54.21904653688687
 30
0
 10
277.2604558041967
 20
-54.06404861688689
 30
0
 10
277.0605453241967
 20
-53.86805584188688
 30
0
 10
276.8208936041968
 20
-53.66794549188689
 30
0
  0
SPLINE
  5
FF
100
AcDbEntity
  8
0
  6
ByLayer
 62
  256
370
   -1
100
AcDbSpline
210
0
220
0
230
0
 70
    8
 71
    3
 72
    8
 73
    4
 74
    0
 42
1e-007
 43
1e-007
 40
0
 40
0
 40
0
 40
0
 40
1
 40
1
 40
1
 40
1
 10
276.8208936041968
 20
-53.66794549188689
 30
0
 10
277.3213895891968
 20
-53.73473749188688
 30
0
 10
277.7736511241967
 20
-53.84983098688689
 30
0
 10
278.1824308141968
 20
-54.0083380168869
 30
0
  0
SPLINE
  5
100
100
AcDbEntity
  8
0
  6
ByLayer
 62
  256
370
   -1
100
AcDbSpline
210
0
220
0
230
0
 70
    8
 71
    3
 72
    8
 73
    4
 74
    0
 42
1e-007
 43
1e-007
 40
0
 40
0
 40
0
 40
0
 40
1
 40
1
 40
1
 40
1
 10
278.1824308141968
 20
-54.0083380168869
 30
0
 10
278.4008469791968
 20
-53.81113084188687
 30
0
 10
278.0406015441968
 20
-53.61391481188687
 30
0
 10
277.8663541191968
 20
-53.41670763688687
 30
0
  0
SPLINE
  5
101
100
AcDbEntity
  8
0
  6
ByLayer
 62
  256
370
   -1
100
AcDbSpline
210
0
220
0
230
0
 70
    8
 71
    3
 72
    8
 73
    4
 74
    0
 42
1e-007
 43
1e-007
 40
0
 40
0
 40
0
 40
0
 40
1
 40
1
 40
1
 40
1
 10
277.8663541191968
 20
-53.41670763688687
 30
0
 10
278.6395790441967
 20
-53.56341221688689
 30
0
 10
278.9671760941968
 20
-53.76952878688689
 30
0
 10
279.2927567341967
 20
-53.97592871688688
 30
0
  0
SPLINE
  5
102
100
AcDbEntity
  8
0
  6
ByLayer
 62
  256
370
   -1
100
AcDbSpline
210
0
220
0
230
0
 70
    8
 71
    3
 72
    8
 73
    4
 74
    0
 42
1e-007
 43
1e-007
 40
0
 40
0
 40
0
 40
0
 40
1
 40
1
 40
1
 40
1
 10
279.2927567341967
 20
-53.97592871688688
 30
0
 10
279.5289689191968
 20
-53.74951016188688
 30
0
 10
279.3062795841968
 20
-53.55709354188688
 30
0
 10
279.1468756691967
 20
-53.36000021688688
 30
0
  0
SPLINE
  5
103
100
AcDbEntity
  8
0
  6
ByLayer
 62
  256
370
   -1
100
AcDbSpline
210
0
220
0
230
0
 70
    8
 71
    3
 72
    8
 73
    4
 74
    0
 42
1e-007
 43
1e-007
 40
0
 40
0
 40
0
 40
0
 40
1
 40
1
 40
1
 40
1
 10
279.1468756691967
 20
-53.36000021688688
 30
0
 10
279.7298989891967
 20
-53.57593571688687
 30
0
 10
280.0301960741967
 20
-53.85470756188688
 30
0
 10
280.3463625841968
 20
-54.12991084188688
 30
0
  0
SPLINE
  5
104
100
AcDbEntity
  8
0
  6
ByLayer
 62
  256
370
   -1
100
AcDbSpline
210
0
220
0
230
0
 70
    8
 71
    3
 72
    8
 73
    4
 74
    0
 42
1e-007
 43
1e-007
 40
0
 40
0
 40
0
 40
0
 40
1
 40
1
 40
1
 40
1
 10
280.3463625841968
 20
-54.12991084188688
 30
0
 10
280.4535536241968
 20
-53.98524544188687
 30
0
 10
280.6186829291968
 20
-53.87921314188687
 30
0
 10
280.4193050141968
 20
-53.53016801688687
 30
0
  0
SPLINE
  5
105
100
AcDbEntity
  8
0
  6
ByLayer
 62
  256
370
   -1
100
AcDbSpline
210
0
220
0
230
0
 70
    8
 71
    3
 72
    8
 73
    4
 74
    0
 42
1e-007
 43
1e-007
 40
0
 40
0
 40
0
 40
0
 40
1
 40
1
 40
1
 40
1
 10
280.4193050141968
 20
-53.53016801688687
 30
0
 10
280.8332484341968
 20
-53.76875966688689
 30
0
 10
281.1450140091968
 20
-54.04994133688687
 30
0
 10
281.3756500741968
 20
-54.36493519188688
 30
0
  0
SPLINE
  5
106
100
AcDbEntity
  8
0
  6
ByLayer
 62
  256
370
   -1
100
AcDbSpline
210
0
220
0
230
0
 70
    8
 71
    3
 72
    8
 73
    4
 74
    0
 42
1e-007
 43
1e-007
 40
0
 40
0
 40
0
 40
0
 40
1
 40
1
 40
1
 40
1
 10
281.3756500741968
 20
-54.36493519188688
 30
0
 10
281.6317657691967
 20
-54.20185518688688
 30
0
 10
281.5282369041967
 20
-53.97884201188688
 30
0
 10
281.5296359941967
 20
-53.77330481188688
 30
0
  0
SPLINE
  5
107
100
AcDbEntity
  8
0
  6
ByLayer
 62
  256
370
   -1
100
AcDbSpline
210
0
220
0
230
0
 70
    8
 71
    3
 72
    8
 73
    4
 74
    0
 42
1e-007
 43
1e-007
 40
0
 40
0
 40
0
 40
0
 40
1
 40
1
 40
1
 40
1
 10
281.5296359941967
 20
-53.77330481188688
 30
0
 10
281.9598245441967
 20
-54.12325061688687
 30
0
 10
282.2328406391968
 20
-54.49565396688688
 30
0
 10
282.5670283391968
 20
-54.85929086688687
 30
0
  0
SPLINE
  5
108
100
AcDbEntity
  8
0
  6
ByLayer
 62
  256
370
   -1
100
AcDbSpline
210
0
220
0
230
0
 70
    8
 71
    3
 72
    8
 73
    4
 74
    0
 42
1e-007
 43
1e-007
 40
0
 40
0
 40
0
 40
0
 40
1
 40
1
 40
1
 40
1
 10
282.5670283391968
 20
-54.85929086688687
 30
0
 10
282.6343453141967
 20
-54.81024049188688
 30
0
 10
282.6932879891967
 20
-54.64403846688688
 30
0
 10
282.7453275591968
 20
-54.38112086688687
 30
0
  0
SPLINE
  5
109
100
AcDbEntity
  8
0
  6
ByLayer
 62
  256
370
   -1
100
AcDbSpline
210
0
220
0
230
0
 70
    8
 71
    3
 72
    8
 73
    4
 74
    0
 42
1e-007
 43
1e-007
 40
0
 40
0
 40
0
 40
0
 40
1
 40
1
 40
1
 40
1
 10
282.7453275591968
 20
-54.38112086688687
 30
0
 10
283.7716473591968
 20
-55.37682513688689
 30
0
 10
285.2218534791968
 20
-57.88472179188689
 30
0
 10
283.1181331791968
 20
-58.87908769188687
 30
0
  0
SPLINE
  5
10A
100
AcDbEntity
  8
0
  6
ByLayer
 62
  256
370
   -1
100
AcDbSpline
210
0
220
0
230
0
 70
    8
 71
    3
 72
    8
 73
    4
 74
    0
 42
1e-007
 43
1e-007
 40
0
 40
0
 40
0
 40
0
 40
1
 40
1
 40
1
 40
1
 10
283.1181331791968
 20
-58.87908769188687
 30
0
 10
281.3277344041967
 20
-57.40247216688689
 30
0
 10
279.1894745441967
 20
-56.32917026688688
 30
0
 10
276.8199069041967
 20
-55.52403318688688
 30
0
  0
LWPOLYLINE
  5
10B
100
AcDbEntity
  8
0
  6
ByLayer
 62
  256
370
   -1
100
AcDbPolyline
 90
    2
 70
    0
 43
0
 10
275.8078107641968
 20
-54.43786623688688
 10
275.4350051441967
 20
-54.05696208688688
  0
SPLINE
  5
10C
100
AcDbEntity
  8
0
  6
ByLayer
 62
  256
370
   -1
100
AcDbSpline
210
0
220
0
230
0
 70
    8
 71
    3
 72
    8
 73
    4
 74
    0
 42
1e-007
 43
1e-007
 40
0
 40
0
 40
0
 40
0
 40
1
 40
1
 40
1
 40
1
 10
292.9820933841968
 20
-55.52409011188687
 30
0
 10
289.9365312491968
 20
-57.09457496188687
 30
0
 10
288.1658550891967
 20
-58.36452364188688
 30
0
 10
287.1957936341968
 20
-59.44665903688688
 30
0
  0
SPLINE
  5
10D
100
AcDbEntity
  8
0
  6
ByLayer
 62
  256
370
   -1
100
AcDbSpline
210
0
220
0
230
0
 70
    8
 71
    3
 72
    8
 73
    4
 74
    0
 42
1e-007
 43
1e-007
 40
0
 40
0
 40
0
 40
0
 40
1
 40
1
 40
1
 40
1
 10
287.1957936341968
 20
-59.44665903688688
 30
0
 10
287.6925692541968
 20
-61.43779054188688
 30
0
 10
290.2842114391967
 20
-61.52866181688689
 30
0
 10
291.2318596241968
 20
-61.47280953688688
 30
0
  0
SPLINE
  5
10E
100
AcDbEntity
  8
0
  6
ByLayer
 62
  256
370
   -1
100
AcDbSpline
210
0
220
0
230
0
 70
    8
 71
    3
 72
    8
 73
    4
 74
    0
 42
1e-007
 43
1e-007
 40
0
 40
0
 40
0
 40
0
 40
1
 40
1
 40
1
 40
1
 10
291.2318596241968
 20
-61.47280953688688
 30
0
 10
291.0378288641967
 20
-61.38248853688687
 30
0
 10
290.8759354291968
 20
-61.27431206188687
 30
0
 10
290.8185297291968
 20
-61.10809991688689
 30
0
  0
SPLINE
  5
10F
100
AcDbEntity
  8
0
  6
ByLayer
 62
  256
370
   -1
100
AcDbSpline
210
0
220
0
230
0
 70
    8
 71
    3
 72
    8
 73
    4
 74
    0
 42
1e-007
 43
1e-007
 40
0
 40
0
 40
0
 40
0
 40
1
 40
1
 40
1
 40
1
 10
290.8185297291968
 20
-61.10809991688689
 30
0
 10
291.0563155741968
 20
-60.93910856688687
 30
0
 10
291.8994481941968
 20
-61.09026341688687
 30
0
 10
292.4880754641968
 20
-60.75960506688688
 30
0
  0
SPLINE
  5
110
100
AcDbEntity
  8
0
  6
ByLayer
 62
  256
370
   -1
100
AcDbSpline
210
0
220
0
230
0
 70
    8
 71
    3
 72
    8
 73
    4
 74
    0
 42
1e-007
 43
1e-007
 40
0
 40
0
 40
0
 40
0
 40
1
 40
1
 40
1
 40
1
 10
292.4880754641968
 20
-60.75960506688688
 30
0
 10
292.2619617741968
 20
-60.71273681688687
 30
0
 10
292.1561963891967
 20
-60.66710194188688
 30
0
 10
292.0504322691968
 20
-60.50026488688688
 30
0
  0
SPLINE
  5
111
100
AcDbEntity
  8
0
  6
ByLayer
 62
  256
370
   -1
100
AcDbSpline
210
0
220
0
230
0
 70
    8
 71
    3
 72
    8
 73
    4
 74
    0
 42
1e-007
 43
1e-007
 40
0
 40
0
 40
0
 40
0
 40
1
 40
1
 40
1
 40
1
 10
292.0504322691968
 20
-60.50026488688688
 30
0
 10
292.6065578941968
 20
-60.32289544188689
 30
0
 10
293.2055847291967
 20
-60.17005181688687
 30
0
 10
293.5578821691968
 20
-59.87622394188689
 30
0
  0
SPLINE
  5
112
100
AcDbEntity
  8
0
  6
ByLayer
 62
  256
370
   -1
100
AcDbSpline
210
0
220
0
230
0
 70
    8
 71
    3
 72
    8
 73
    4
 74
    0
 42
1e-007
 43
1e-007
 40
0
 40
0
 40
0
 40
0
 40
1
 40
1
 40
1
 40
1
 10
293.5578821691968
 20
-59.87622394188689
 30
0
 10
293.3677564641968
 20
-59.87907019188687
 30
0
 10
293.1902453391968
 20
-59.91872794188687
 30
0
 10
292.9419549341968
 20
-59.74654879188687
 30
0
  0
SPLINE
  5
113
100
AcDbEntity
  8
0
  6
ByLayer
 62
  256
370
   -1
100
AcDbSpline
210
0
220
0
230
0
 70
    8
 71
    3
 72
    8
 73
    4
 74
    0
 42
1e-007
 43
1e-007
 40
0
 40
0
 40
0
 40
0
 40
1
 40
1
 40
1
 40
1
 10
292.9419549341968
 20
-59.74654879188687
 30
0
 10
293.4400752491968
 20
-59.47811958688689
 30
0
 10
293.9715928291968
 20
-59.26537188688688
 30
0
 10
294.3845406941967
 20
-58.85507546188688
 30
0
  0
SPLINE
  5
114
100
AcDbEntity
  8
0
  6
ByLayer
 62
  256
370
   -1
100
AcDbSpline
210
0
220
0
230
0
 70
    8
 71
    3
 72
    8
 73
    4
 74
    0
 42
1e-007
 43
1e-007
 40
0
 40
0
 40
0
 40
0
 40
1
 40
1
 40
1
 40
1
 10
294.3845406941967
 20
-58.85507546188688
 30
0
 10
294.1270006091967
 20
-58.84843421188689
 30
0
 10
293.8493495541968
 20
-58.85222921188688
 30
0
 10
293.7686147241968
 20
-58.75781846688687
 30
0
  0
SPLINE
  5
115
100
AcDbEntity
  8
0
  6
ByLayer
 62
  256
370
   -1
100
AcDbSpline
210
0
220
0
230
0
 70
    8
 71
    3
 72
    8
 73
    4
 74
    0
 42
1e-007
 43
1e-007
 40
0
 40
0
 40
0
 40
0
 40
1
 40
1
 40
1
 40
1
 10
293.7686147241968
 20
-58.75781846688687
 30
0
 10
294.2245080741968
 20
-58.47537559188687
 30
0
 10
294.6091705391968
 20
-58.16126344188687
 30
0
 10
294.9275773641968
 20
-57.81770209188688
 30
0
  0
SPLINE
  5
116
100
AcDbEntity
  8
0
  6
ByLayer
 62
  256
370
   -1
100
AcDbSpline
210
0
220
0
230
0
 70
    8
 71
    3
 72
    8
 73
    4
 74
    0
 42
1e-007
 43
1e-007
 40
0
 40
0
 40
0
 40
0
 40
1
 40
1
 40
1
 40
1
 10
294.9275773641968
 20
-57.81770209188688
 30
0
 10
294.5671662141967
 20
-57.86124971688688
 30
0
 10
294.4149791241967
 20
-57.82339459188687
 30
0
 10
294.3278345391968
 20
-57.76096684188687
 30
0
  0
SPLINE
  5
117
100
AcDbEntity
  8
0
  6
ByLayer
 62
  256
370
   -1
100
AcDbSpline
210
0
220
0
230
0
 70
    8
 71
    3
 72
    8
 73
    4
 74
    0
 42
1e-007
 43
1e-007
 40
0
 40
0
 40
0
 40
0
 40
1
 40
1
 40
1
 40
1
 10
294.3278345391968
 20
-57.76096684188687
 30
0
 10
294.6724572241967
 20
-57.40799389188688
 30
0
 10
295.1086355491968
 20
-57.10994471188688
 30
0
 10
295.3165888991967
 20
-56.67498078688688
 30
0
  0
SPLINE
  5
118
100
AcDbEntity
  8
0
  6
ByLayer
 62
  256
370
   -1
100
AcDbSpline
210
0
220
0
230
0
 70
    8
 71
    3
 72
    8
 73
    4
 74
    0
 42
1e-007
 43
1e-007
 40
0
 40
0
 40
0
 40
0
 40
1
 40
1
 40
1
 40
1
 10
295.3165888991967
 20
-56.67498078688688
 30
0
 10
295.0489882691968
 20
-56.76719928688688
 30
0
 10
294.8041677591968
 20
-56.80252061688689
 30
0
 10
294.6276838141968
 20
-56.66644203688688
 30
0
  0
SPLINE
  5
119
100
AcDbEntity
  8
0
  6
ByLayer
 62
  256
370
   -1
100
AcDbSpline
210
0
220
0
230
0
 70
    8
 71
    3
 72
    8
 73
    4
 74
    0
 42
1e-007
 43
1e-007
 40
0
 40
0
 40
0
 40
0
 40
1
 40
1
 40
1
 40
1
 10
294.6276838141968
 20
-56.66644203688688
 30
0
 10
294.7447911891968
 20
-56.40225311188689
 30
0
 10
295.2465243441967
 20
-56.24643041188688
 30
0
 10
295.5353908891968
 20
-55.62904969188688
 30
0
  0
SPLINE
  5
11A
100
AcDbEntity
  8
0
  6
ByLayer
 62
  256
370
   -1
100
AcDbSpline
210
0
220
0
230
0
 70
    8
 71
    3
 72
    8
 73
    4
 74
    0
 42
1e-007
 43
1e-007
 40
0
 40
0
 40
0
 40
0
 40
1
 40
1
 40
1
 40
1
 10
295.5353908891968
 20
-55.62904969188688
 30
0
 10
295.2536779191968
 20
-55.65637369188688
 30
0
 10
294.9548773291967
 20
-55.69052869188688
 30
0
 10
294.8951225241967
 20
-55.62904969188688
 30
0
  0
SPLINE
  5
11B
100
AcDbEntity
  8
0
  6
ByLayer
 62
  256
370
   -1
100
AcDbSpline
210
0
220
0
230
0
 70
    8
 71
    3
 72
    8
 73
    4
 74
    0
 42
1e-007
 43
1e-007
 40
0
 40
0
 40
0
 40
0
 40
1
 40
1
 40
1
 40
1
 10
294.8951225241967
 20
-55.62904969188688
 30
0
 10
295.0261221291968
 20
-55.09609886688688
 30
0
 10
295.2504913841968
 20
-54.79660758688687
 30
0
 10
295.4705254841968
 20
-54.48630941188687
 30
0
  0
SPLINE
  5
11C
100
AcDbEntity
  8
0
  6
ByLayer
 62
  256
370
   -1
100
AcDbSpline
210
0
220
0
230
0
 70
    8
 71
    3
 72
    8
 73
    4
 74
    0
 42
1e-007
 43
1e-007
 40
0
 40
0
 40
0
 40
0
 40
1
 40
1
 40
1
 40
1
 10
295.4705254841968
 20
-54.48630941188687
 30
0
 10
294.8675986541968
 20
-54.47777066188687
 30
0
 10
293.9541105291968
 20
-54.48915566188688
 30
0
 10
293.9954848841968
 20
-54.43763853688688
 30
0
  0
LWPOLYLINE
  5
11D
100
AcDbEntity
  8
0
  6
ByLayer
 62
  256
370
   -1
100
AcDbPolyline
 90
    2
 70
    0
 43
0
 10
276.8199069041967
 20
-55.52403318688688
 10
276.8205305491967
 20
-55.52409011188687
  0
SPLINE
  5
11E
100
AcDbEntity
  8
0
  6
ByLayer
 62
  256
370
   -1
100
AcDbSpline
210
0
220
0
230
0
 70
    8
 71
    3
 72
    8
 73
    4
 74
    0
 42
1e-007
 43
1e-007
 40
0
 40
0
 40
0
 40
0
 40
1
 40
1
 40
1
 40
1
 10
294.3682905041967
 20
-54.05672426688687
 30
0
 10
293.7793507791968
 20
-53.89816031188689
 30
0
 10
293.1767389341967
 20
-54.08215076688688
 30
0
 10
292.7392690441968
 20
-54.21881883688687
 30
0
  0
SPLINE
  5
11F
100
AcDbEntity
  8
0
  6
ByLayer
 62
  256
370
   -1
100
AcDbSpline
210
0
220
0
230
0
 70
    8
 71
    3
 72
    8
 73
    4
 74
    0
 42
1e-007
 43
1e-007
 40
0
 40
0
 40
0
 40
0
 40
1
 40
1
 40
1
 40
1
 10
292.7392690441968
 20
-54.21881883688687
 30
0
 10
292.5428411091967
 20
-54.06382091688688
 30
0
 10
292.7427794191967
 20
-53.86781928688687
 30
0
 10
292.9824033091968
 20
-53.66770893688689
 30
0
  0
SPLINE
  5
120
100
AcDbEntity
  8
0
  6
ByLayer
 62
  256
370
   -1
100
AcDbSpline
210
0
220
0
230
0
 70
    8
 71
    3
 72
    8
 73
    4
 74
    0
 42
1e-007
 43
1e-007
 40
0
 40
0
 40
0
 40
0
 40
1
 40
1
 40
1
 40
1
 10
292.9824033091968
 20
-53.66770893688689
 30
0
 10
292.4819073241968
 20
-53.73450093688687
 30
0
 10
292.0296445241967
 20
-53.84959316688688
 30
0
 10
291.6208648341967
 20
-54.00810146188687
 30
0
  0
SPLINE
  5
121
100
AcDbEntity
  8
0
  6
ByLayer
 62
  256
370
   -1
100
AcDbSpline
210
0
220
0
230
0
 70
    8
 71
    3
 72
    8
 73
    4
 74
    0
 42
1e-007
 43
1e-007
 40
0
 40
0
 40
0
 40
0
 40
1
 40
1
 40
1
 40
1
 10
291.6208648341967
 20
-54.00810146188687
 30
0
 10
291.4024499341968
 20
-53.81089428688688
 30
0
 10
291.7626941041967
 20
-53.61367699188688
 30
0
 10
291.9369427941967
 20
-53.41646981688688
 30
0
  0
SPLINE
  5
122
100
AcDbEntity
  8
0
  6
ByLayer
 62
  256
370
   -1
100
AcDbSpline
210
0
220
0
230
0
 70
    8
 71
    3
 72
    8
 73
    4
 74
    0
 42
1e-007
 43
1e-007
 40
0
 40
0
 40
0
 40
0
 40
1
 40
1
 40
1
 40
1
 10
291.9369427941967
 20
-53.41646981688688
 30
0
 10
291.1637178691967
 20
-53.56317566188688
 30
0
 10
290.8361195541968
 20
-53.76929096688687
 30
0
 10
290.5105401791968
 20
-53.97569216188687
 30
0
  0
SPLINE
  5
123
100
AcDbEntity
  8
0
  6
ByLayer
 62
  256
370
   -1
100
AcDbSpline
210
0
220
0
230
0
 70
    8
 71
    3
 72
    8
 73
    4
 74
    0
 42
1e-007
 43
1e-007
 40
0
 40
0
 40
0
 40
0
 40
1
 40
1
 40
1
 40
1
 10
290.5105401791968
 20
-53.97569216188687
 30
0
 10
290.2743267291967
 20
-53.74928246188688
 30
0
 10
290.4970173291968
 20
-53.55685698688688
 30
0
 10
290.6564212441967
 20
-53.35976366188688
 30
0
  0
SPLINE
  5
124
100
AcDbEntity
  8
0
  6
ByLayer
 62
  256
370
   -1
100
AcDbSpline
210
0
220
0
230
0
 70
    8
 71
    3
 72
    8
 73
    4
 74
    0
 42
1e-007
 43
1e-007
 40
0
 40
0
 40
0
 40
0
 40
1
 40
1
 40
1
 40
1
 10
290.6564212441967
 20
-53.35976366188688
 30
0
 10
290.0733979241967
 20
-53.57569916188687
 30
0
 10
289.7731008391968
 20
-53.85447986188689
 30
0
 10
289.4569330641968
 20
-54.12967428688687
 30
0
  0
SPLINE
  5
125
100
AcDbEntity
  8
0
  6
ByLayer
 62
  256
370
   -1
100
AcDbSpline
210
0
220
0
230
0
 70
    8
 71
    3
 72
    8
 73
    4
 74
    0
 42
1e-007
 43
1e-007
 40
0
 40
0
 40
0
 40
0
 40
1
 40
1
 40
1
 40
1
 10
289.4569330641968
 20
-54.12967428688687
 30
0
 10
289.3497432891968
 20
-53.98500888688688
 30
0
 10
289.1846127191968
 20
-53.87897658688688
 30
0
 10
289.3839906341967
 20
-53.52993146188687
 30
0
  0
SPLINE
  5
126
100
AcDbEntity
  8
0
  6
ByLayer
 62
  256
370
   -1
100
AcDbSpline
210
0
220
0
230
0
 70
    8
 71
    3
 72
    8
 73
    4
 74
    0
 42
1e-007
 43
1e-007
 40
0
 40
0
 40
0
 40
0
 40
1
 40
1
 40
1
 40
1
 10
289.3839906341967
 20
-53.52993146188687
 30
0
 10
288.9700472141967
 20
-53.76853196688689
 30
0
 10
288.6582829041968
 20
-54.04970351688688
 30
0
 10
288.4276468391968
 20
-54.36469863688689
 30
0
  0
SPLINE
  5
127
100
AcDbEntity
  8
0
  6
ByLayer
 62
  256
370
   -1
100
AcDbSpline
210
0
220
0
230
0
 70
    8
 71
    3
 72
    8
 73
    4
 74
    0
 42
1e-007
 43
1e-007
 40
0
 40
0
 40
0
 40
0
 40
1
 40
1
 40
1
 40
1
 10
288.4276468391968
 20
-54.36469863688689
 30
0
 10
288.1715311441968
 20
-54.20162748688688
 30
0
 10
288.2750587441967
 20
-53.97860419188689
 30
0
 10
288.2736609191967
 20
-53.77307711188688
 30
0
  0
SPLINE
  5
128
100
AcDbEntity
  8
0
  6
ByLayer
 62
  256
370
   -1
100
AcDbSpline
210
0
220
0
230
0
 70
    8
 71
    3
 72
    8
 73
    4
 74
    0
 42
1e-007
 43
1e-007
 40
0
 40
0
 40
0
 40
0
 40
1
 40
1
 40
1
 40
1
 10
288.2736609191967
 20
-53.77307711188688
 30
0
 10
287.8434723691967
 20
-54.12301406188688
 30
0
 10
287.5704562741968
 20
-54.49541741188689
 30
0
 10
287.2362685741968
 20
-54.85905431188688
 30
0
  0
SPLINE
  5
129
100
AcDbEntity
  8
0
  6
ByLayer
 62
  256
370
   -1
100
AcDbSpline
210
0
220
0
230
0
 70
    8
 71
    3
 72
    8
 73
    4
 74
    0
 42
1e-007
 43
1e-007
 40
0
 40
0
 40
0
 40
0
 40
1
 40
1
 40
1
 40
1
 10
287.2362685741968
 20
-54.85905431188688
 30
0
 10
287.1689515991968
 20
-54.81000393688688
 30
0
 10
287.1100089241968
 20
-54.64381076688688
 30
0
 10
287.0579680891967
 20
-54.38088431188688
 30
0
  0
SPLINE
  5
12A
100
AcDbEntity
  8
0
  6
ByLayer
 62
  256
370
   -1
100
AcDbSpline
210
0
220
0
230
0
 70
    8
 71
    3
 72
    8
 73
    4
 74
    0
 42
1e-007
 43
1e-007
 40
0
 40
0
 40
0
 40
0
 40
1
 40
1
 40
1
 40
1
 10
287.0579680891967
 20
-54.38088431188688
 30
0
 10
286.0316482891968
 20
-55.37658731688688
 30
0
 10
284.5814421691967
 20
-57.88449409188689
 30
0
 10
286.6851624691967
 20
-58.87885113688688
 30
0
  0
SPLINE
  5
12B
100
AcDbEntity
  8
0
  6
ByLayer
 62
  256
370
   -1
100
AcDbSpline
210
0
220
0
230
0
 70
    8
 71
    3
 72
    8
 73
    4
 74
    0
 42
1e-007
 43
1e-007
 40
0
 40
0
 40
0
 40
0
 40
1
 40
1
 40
1
 40
1
 10
286.6851624691967
 20
-58.87885113688688
 30
0
 10
288.4746213491968
 20
-57.40192189188688
 30
0
 10
290.6127458541968
 20
-56.32871486688688
 30
0
 10
292.9824918591968
 20
-55.52357778688688
 30
0
  0
LWPOLYLINE
  5
12C
100
AcDbEntity
  8
0
  6
ByLayer
 62
  256
370
   -1
100
AcDbPolyline
 90
    2
 70
    0
 43
0
 10
293.9954848841968
 20
-54.43763853688688
 10
294.3682905041967
 20
-54.05672426688687
  0
SPLINE
  5
12D
100
AcDbEntity
  8
0
  6
ByLayer
 62
  256
370
   -1
100
AcDbSpline
210
0
220
0
230
0
 70
    8
 71
    3
 72
    8
 73
    4
 74
    0
 42
1e-007
 43
1e-007
 40
0
 40
0
 40
0
 40
0
 40
1
 40
1
 40
1
 40
1
 10
288.5899716391967
 20
-75.7997125118869
 30
0
 10
288.5968608291968
 20
-77.00588115688689
 30
0
 10
287.9029830291968
 20
-78.12315572188689
 30
0
 10
286.7713241491967
 20
-78.72808251688687
 30
0
  0
SPLINE
  5
12E
100
AcDbEntity
  8
0
  6
ByLayer
 62
  256
370
   -1
100
AcDbSpline
210
0
220
0
230
0
 70
    8
 71
    3
 72
    8
 73
    4
 74
    0
 42
1e-007
 43
1e-007
 40
0
 40
0
 40
0
 40
0
 40
1
 40
1
 40
1
 40
1
 10
286.7713241491967
 20
-78.72808251688687
 30
0
 10
285.6396640041968
 20
-79.33300804688689
 30
0
 10
284.2434101341968
 20
-79.33300804688689
 30
0
 10
283.1117499891968
 20
-78.72808251688687
 30
0
  0
SPLINE
  5
12F
100
AcDbEntity
  8
0
  6
ByLayer
 62
  256
370
   -1
100
AcDbSpline
210
0
220
0
230
0
 70
    8
 71
    3
 72
    8
 73
    4
 74
    0
 42
1e-007
 43
1e-007
 40
0
 40
0
 40
0
 40
0
 40
1
 40
1
 40
1
 40
1
 10
283.1117499891968
 20
-78.72808251688687
 30
0
 10
281.9800911091968
 20
-78.12315572188689
 30
0
 10
281.2862133091968
 20
-77.00588115688689
 30
0
 10
281.2931012341967
 20
-75.7997125118869
 30
0
  0
SPLINE
  5
130
100
AcDbEntity
  8
0
  6
ByLayer
 62
  256
370
   -1
100
AcDbSpline
210
0
220
0
230
0
 70
    8
 71
    3
 72
    8
 73
    4
 74
    0
 42
1e-007
 43
1e-007
 40
0
 40
0
 40
0
 40
0
 40
1
 40
1
 40
1
 40
1
 10
281.2931012341967
 20
-75.7997125118869
 30
0
 10
281.2862133091968
 20
-74.59354260188688
 30
0
 10
281.9800911091968
 20
-73.47626803688689
 30
0
 10
283.1117499891968
 20
-72.87134124188688
 30
0
  0
SPLINE
  5
131
100
AcDbEntity
  8
0
  6
ByLayer
 62
  256
370
   -1
100
AcDbSpline
210
0
220
0
230
0
 70
    8
 71
    3
 72
    8
 73
    4
 74
    0
 42
1e-007
 43
1e-007
 40
0
 40
0
 40
0
 40
0
 40
1
 40
1
 40
1
 40
1
 10
283.1117499891968
 20
-72.87134124188688
 30
0
 10
284.2434101341968
 20
-72.26641571188686
 30
0
 10
285.6396640041968
 20
-72.26641571188686
 30
0
 10
286.7713241491967
 20
-72.87134124188688
 30
0
  0
SPLINE
  5
132
100
AcDbEntity
  8
0
  6
ByLayer
 62
  256
370
   -1
100
AcDbSpline
210
0
220
0
230
0
 70
    8
 71
    3
 72
    8
 73
    4
 74
    0
 42
1e-007
 43
1e-007
 40
0
 40
0
 40
0
 40
0
 40
1
 40
1
 40
1
 40
1
 10
286.7713241491967
 20
-72.87134124188688
 30
0
 10
287.9029830291968
 20
-73.47626803688689
 30
0
 10
288.5968608291968
 20
-74.59354260188688
 30
0
 10
288.5899716391967
 20
-75.7997125118869
 30
0
  0
LWPOLYLINE
  5
133
100
AcDbEntity
  8
0
  6
ByLayer
 62
  256
370
   -1
100
AcDbPolyline
 90
    2
 70
    0
 43
0
 10
292.9824918591968
 20
-55.52357778688688
 10
292.9820933841968
 20
-55.52409011188687
  0
SPLINE
  5
134
100
AcDbEntity
  8
0
  6
ByLayer
 62
  256
370
   -1
100
AcDbSpline
210
0
220
0
230
0
 70
    8
 71
    3
 72
    8
 73
    4
 74
    0
 42
1e-007
 43
1e-007
 40
0
 40
0
 40
0
 40
0
 40
1
 40
1
 40
1
 40
1
 10
282.8304392891968
 20
-66.18897874188688
 30
0
 10
283.8097112091967
 20
-66.82899663688688
 30
0
 10
284.3087815391967
 20
-68.03537021188687
 30
0
 10
284.1394461091968
 20
-69.35316625188689
 30
0
  0
SPLINE
  5
135
100
AcDbEntity
  8
0
  6
ByLayer
 62
  256
370
   -1
100
AcDbSpline
210
0
220
0
230
0
 70
    8
 71
    3
 72
    8
 73
    4
 74
    0
 42
1e-007
 43
1e-007
 40
0
 40
0
 40
0
 40
0
 40
1
 40
1
 40
1
 40
1
 10
284.1394461091968
 20
-69.35316625188689
 30
0
 10
283.9701094141968
 20
-70.67096102688689
 30
0
 10
283.1581286841968
 20
-71.89971118688688
 30
0
 10
282.0097060241967
 20
-72.57604343688688
 30
0
  0
SPLINE
  5
136
100
AcDbEntity
  8
0
  6
ByLayer
 62
  256
370
   -1
100
AcDbSpline
210
0
220
0
230
0
 70
    8
 71
    3
 72
    8
 73
    4
 74
    0
 42
1e-007
 43
1e-007
 40
0
 40
0
 40
0
 40
0
 40
1
 40
1
 40
1
 40
1
 10
282.0097060241967
 20
-72.57604343688688
 30
0
 10
280.8612820991968
 20
-73.25237568688686
 30
0
 10
279.5511215991968
 20
-73.27340504688688
 30
0
 10
278.5732930441968
 20
-72.63119996688688
 30
0
  0
SPLINE
  5
137
100
AcDbEntity
  8
0
  6
ByLayer
 62
  256
370
   -1
100
AcDbSpline
210
0
220
0
230
0
 70
    8
 71
    3
 72
    8
 73
    4
 74
    0
 42
1e-007
 43
1e-007
 40
0
 40
0
 40
0
 40
0
 40
1
 40
1
 40
1
 40
1
 10
278.5732930441968
 20
-72.63119996688688
 30
0
 10
277.5940198591967
 20
-71.99118207188687
 30
0
 10
277.0949507941967
 20
-70.78480849688688
 30
0
 10
277.2642862241968
 20
-69.46701245688688
 30
0
  0
SPLINE
  5
138
100
AcDbEntity
  8
0
  6
ByLayer
 62
  256
370
   -1
100
AcDbSpline
210
0
220
0
230
0
 70
    8
 71
    3
 72
    8
 73
    4
 74
    0
 42
1e-007
 43
1e-007
 40
0
 40
0
 40
0
 40
0
 40
1
 40
1
 40
1
 40
1
 10
277.2642862241968
 20
-69.46701245688688
 30
0
 10
277.4336216541967
 20
-68.14921768188687
 30
0
 10
278.2456036491967
 20
-66.92046752188688
 30
0
 10
279.3940263091968
 20
-66.24413527188688
 30
0
  0
SPLINE
  5
139
100
AcDbEntity
  8
0
  6
ByLayer
 62
  256
370
   -1
100
AcDbSpline
210
0
220
0
230
0
 70
    8
 71
    3
 72
    8
 73
    4
 74
    0
 42
1e-007
 43
1e-007
 40
0
 40
0
 40
0
 40
0
 40
1
 40
1
 40
1
 40
1
 10
279.3940263091968
 20
-66.24413527188688
 30
0
 10
280.5424502341967
 20
-65.56780302188687
 30
0
 10
281.8526107341968
 20
-65.54677366188687
 30
0
 10
282.8304392891968
 20
-66.18897874188688
 30
0
  0
LWPOLYLINE
  5
13A
100
AcDbEntity
  8
0
  6
ByLayer
 62
  256
370
   -1
100
AcDbPolyline
 90
    1
 70
    1
 43
0
 10
288.5899716391967
 20
-75.7997125118869
  0
SPLINE
  5
13B
100
AcDbEntity
  8
0
  6
ByLayer
 62
  256
370
   -1
100
AcDbSpline
210
0
220
0
230
0
 70
    8
 71
    3
 72
    8
 73
    4
 74
    0
 42
1e-007
 43
1e-007
 40
0
 40
0
 40
0
 40
0
 40
1
 40
1
 40
1
 40
1
 10
286.9107815441968
 20
-66.00966499188688
 30
0
 10
285.9315248041968
 20
-66.64969174188688
 30
0
 10
285.4324683891967
 20
-67.85606025688686
 30
0
 10
285.6018076141967
 20
-69.17384617688688
 30
0
  0
SPLINE
  5
13C
100
AcDbEntity
  8
0
  6
ByLayer
 62
  256
370
   -1
100
AcDbSpline
210
0
220
0
230
0
 70
    8
 71
    3
 72
    8
 73
    4
 74
    0
 42
1e-007
 43
1e-007
 40
0
 40
0
 40
0
 40
0
 40
1
 40
1
 40
1
 40
1
 10
285.6018076141967
 20
-69.17384617688688
 30
0
 10
285.7711468391967
 20
-70.49163083188689
 30
0
 10
286.5831225091968
 20
-71.72036960688688
 30
0
 10
287.7315350491967
 20
-72.39670185688689
 30
0
  0
SPLINE
  5
13D
100
AcDbEntity
  8
0
  6
ByLayer
 62
  256
370
   -1
100
AcDbSpline
210
0
220
0
230
0
 70
    8
 71
    3
 72
    8
 73
    4
 74
    0
 42
1e-007
 43
1e-007
 40
0
 40
0
 40
0
 40
0
 40
1
 40
1
 40
1
 40
1
 10
287.7315350491967
 20
-72.39670185688689
 30
0
 10
288.8799475891968
 20
-73.07303410688688
 30
0
 10
290.1900979691968
 20
-73.09407358688688
 30
0
 10
291.1679277891967
 20
-72.45188621688688
 30
0
  0
SPLINE
  5
13E
100
AcDbEntity
  8
0
  6
ByLayer
 62
  256
370
   -1
100
AcDbSpline
210
0
220
0
230
0
 70
    8
 71
    3
 72
    8
 73
    4
 74
    0
 42
1e-007
 43
1e-007
 40
0
 40
0
 40
0
 40
0
 40
1
 40
1
 40
1
 40
1
 10
291.1679277891967
 20
-72.45188621688688
 30
0
 10
292.1471845291967
 20
-71.81185946688687
 30
0
 10
292.6462409441968
 20
-70.60549095188686
 30
0
 10
292.4769017191967
 20
-69.28770503188689
 30
0
  0
SPLINE
  5
13F
100
AcDbEntity
  8
0
  6
ByLayer
 62
  256
370
   -1
100
AcDbSpline
210
0
220
0
230
0
 70
    8
 71
    3
 72
    8
 73
    4
 74
    0
 42
1e-007
 43
1e-007
 40
0
 40
0
 40
0
 40
0
 40
1
 40
1
 40
1
 40
1
 10
292.4769017191967
 20
-69.28770503188689
 30
0
 10
292.3075624941968
 20
-67.96992037688689
 30
0
 10
291.4955868241968
 20
-66.74118160188686
 30
0
 10
290.3471742841967
 20
-66.06484935188688
 30
0
  0
SPLINE
  5
140
100
AcDbEntity
  8
0
  6
ByLayer
 62
  256
370
   -1
100
AcDbSpline
210
0
220
0
230
0
 70
    8
 71
    3
 72
    8
 73
    4
 74
    0
 42
1e-007
 43
1e-007
 40
0
 40
0
 40
0
 40
0
 40
1
 40
1
 40
1
 40
1
 10
290.3471742841967
 20
-66.06484935188688
 30
0
 10
289.1987630091968
 20
-65.38851710188688
 30
0
 10
287.8886113641968
 20
-65.36747762188689
 30
0
 10
286.9107815441968
 20
-66.00966499188688
 30
0
  0
LWPOLYLINE
  5
141
100
AcDbEntity
  8
0
  6
ByLayer
 62
  256
370
   -1
100
AcDbPolyline
 90
    1
 70
    1
 43
0
 10
282.8304392891968
 20
-66.18897874188688
  0
SPLINE
  5
142
100
AcDbEntity
  8
0
  6
ByLayer
 62
  256
370
   -1
100
AcDbSpline
210
0
220
0
230
0
 70
    8
 71
    3
 72
    8
 73
    4
 74
    0
 42
1e-007
 43
1e-007
 40
0
 40
0
 40
0
 40
0
 40
1
 40
1
 40
1
 40
1
 10
275.2748865041967
 20
-67.80827741188688
 30
0
 10
276.9070464291968
 20
-67.37077083688688
 30
0
 10
275.8259027941967
 20
-74.56060706188688
 30
0
 10
274.4978969391968
 20
-73.97068316688689
 30
0
  0
SPLINE
  5
143
100
AcDbEntity
  8
0
  6
ByLayer
 62
  256
370
   -1
100
AcDbSpline
210
0
220
0
230
0
 70
    8
 71
    3
 72
    8
 73
    4
 74
    0
 42
1e-007
 43
1e-007
 40
0
 40
0
 40
0
 40
0
 40
1
 40
1
 40
1
 40
1
 10
274.4978969391968
 20
-73.97068316688689
 30
0
 10
273.0371116241968
 20
-72.79576128688689
 30
0
 10
272.5666049941967
 20
-69.35482466688688
 30
0
 10
275.2748865041967
 20
-67.80827741188688
 30
0
  0
LWPOLYLINE
  5
144
100
AcDbEntity
  8
0
  6
ByLayer
 62
  256
370
   -1
100
AcDbPolyline
 90
    1
 70
    1
 43
0
 10
286.9107815441968
 20
-66.00966499188688
  0
SPLINE
  5
145
100
AcDbEntity
  8
0
  6
ByLayer
 62
  256
370
   -1
100
AcDbSpline
210
0
220
0
230
0
 70
    8
 71
    3
 72
    8
 73
    4
 74
    0
 42
1e-007
 43
1e-007
 40
0
 40
0
 40
0
 40
0
 40
1
 40
1
 40
1
 40
1
 10
294.1368435741967
 20
-67.71862939188688
 30
0
 10
292.5045040191968
 20
-67.28124678688687
 30
0
 10
293.5858272841967
 20
-74.47140558688687
 30
0
 10
294.9138344041967
 20
-73.88148169188689
 30
0
  0
SPLINE
  5
146
100
AcDbEntity
  8
0
  6
ByLayer
 62
  256
370
   -1
100
AcDbSpline
210
0
220
0
230
0
 70
    8
 71
    3
 72
    8
 73
    4
 74
    0
 42
1e-007
 43
1e-007
 40
0
 40
0
 40
0
 40
0
 40
1
 40
1
 40
1
 40
1
 10
294.9138344041967
 20
-73.88148169188689
 30
0
 10
296.3746197191968
 20
-72.70641686688688
 30
0
 10
296.8451263491968
 20
-69.26516779188688
 30
0
 10
294.1368435741967
 20
-67.71862939188688
 30
0
  0
LWPOLYLINE
  5
147
100
AcDbEntity
  8
0
  6
ByLayer
 62
  256
370
   -1
100
AcDbPolyline
 90
    1
 70
    1
 43
0
 10
275.2748865041967
 20
-67.80827741188688
  0
SPLINE
  5
148
100
AcDbEntity
  8
0
  6
ByLayer
 62
  256
370
   -1
100
AcDbSpline
210
0
220
0
230
0
 70
    8
 71
    3
 72
    8
 73
    4
 74
    0
 42
1e-007
 43
1e-007
 40
0
 40
0
 40
0
 40
0
 40
1
 40
1
 40
1
 40
1
 10
288.5912657341968
 20
-62.36446376188687
 30
0
 10
291.4079855741968
 20
-61.88884526688688
 30
0
 10
293.7517775741968
 20
-63.56233653688687
 30
0
 10
293.6571922591968
 20
-66.61668536188689
 30
0
  0
SPLINE
  5
149
100
AcDbEntity
  8
0
  6
ByLayer
 62
  256
370
   -1
100
AcDbSpline
210
0
220
0
230
0
 70
    8
 71
    3
 72
    8
 73
    4
 74
    0
 42
1e-007
 43
1e-007
 40
0
 40
0
 40
0
 40
0
 40
1
 40
1
 40
1
 40
1
 10
293.6571922591968
 20
-66.61668536188689
 30
0
 10
293.5645373341968
 20
-67.78761363688689
 30
0
 10
287.5535153941968
 20
-62.53879594188689
 30
0
 10
288.5912657341968
 20
-62.36446376188687
 30
0
  0
LWPOLYLINE
  5
14A
100
AcDbEntity
  8
0
  6
ByLayer
 62
  256
370
   -1
100
AcDbPolyline
 90
    1
 70
    1
 43
0
 10
294.1368435741967
 20
-67.71862939188688
  0
SPLINE
  5
14B
100
AcDbEntity
  8
0
  6
ByLayer
 62
  256
370
   -1
100
AcDbSpline
210
0
220
0
230
0
 70
    8
 71
    3
 72
    8
 73
    4
 74
    0
 42
1e-007
 43
1e-007
 40
0
 40
0
 40
0
 40
0
 40
1
 40
1
 40
1
 40
1
 10
280.8088098991967
 20
-62.27480688688689
 30
0
 10
277.9918661541967
 20
-61.79918839188688
 30
0
 10
275.6482980591967
 20
-63.47304018688689
 30
0
 10
275.7428833741968
 20
-66.52712336188688
 30
0
  0
SPLINE
  5
14C
100
AcDbEntity
  8
0
  6
ByLayer
 62
  256
370
   -1
100
AcDbSpline
210
0
220
0
230
0
 70
    8
 71
    3
 72
    8
 73
    4
 74
    0
 42
1e-007
 43
1e-007
 40
0
 40
0
 40
0
 40
0
 40
1
 40
1
 40
1
 40
1
 10
275.7428833741968
 20
-66.52712336188688
 30
0
 10
275.8355408291967
 20
-67.69800356688687
 30
0
 10
281.8465602391967
 20
-62.44918713688689
 30
0
 10
280.8088098991967
 20
-62.27480688688689
 30
0
  0
LWPOLYLINE
  5
14D
100
AcDbEntity
  8
0
  6
ByLayer
 62
  256
370
   -1
100
AcDbPolyline
 90
    1
 70
    1
 43
0
 10
288.5912657341968
 20
-62.36446376188687
  0
SPLINE
  5
14E
100
AcDbEntity
  8
0
  6
ByLayer
 62
  256
370
   -1
100
AcDbSpline
210
0
220
0
230
0
 70
    8
 71
    3
 72
    8
 73
    4
 74
    0
 42
1e-007
 43
1e-007
 40
0
 40
0
 40
0
 40
0
 40
1
 40
1
 40
1
 40
1
 10
284.8549161941968
 20
-61.56250436188688
 30
0
 10
283.1737602891967
 20
-61.51876698688688
 30
0
 10
281.5603375441967
 20
-62.81022446188689
 30
0
 10
281.5564375491968
 20
-63.55929041688688
 30
0
  0
SPLINE
  5
14F
100
AcDbEntity
  8
0
  6
ByLayer
 62
  256
370
   -1
100
AcDbSpline
210
0
220
0
230
0
 70
    8
 71
    3
 72
    8
 73
    4
 74
    0
 42
1e-007
 43
1e-007
 40
0
 40
0
 40
0
 40
0
 40
1
 40
1
 40
1
 40
1
 10
281.5564375491968
 20
-63.55929041688688
 30
0
 10
281.5517469291968
 20
-64.46945538688689
 30
0
 10
282.8856109991968
 20
-65.40137456188687
 30
0
 10
284.8663467341968
 20
-65.42499843688688
 30
0
  0
SPLINE
  5
150
100
AcDbEntity
  8
0
  6
ByLayer
 62
  256
370
   -1
100
AcDbSpline
210
0
220
0
230
0
 70
    8
 71
    3
 72
    8
 73
    4
 74
    0
 42
1e-007
 43
1e-007
 40
0
 40
0
 40
0
 40
0
 40
1
 40
1
 40
1
 40
1
 10
284.8663467341968
 20
-65.42499843688688
 30
0
 10
286.8890867941968
 20
-65.4395143118869
 30
0
 10
288.1797966541967
 20
-64.67907221188689
 30
0
 10
288.1862962241968
 20
-63.73976164188687
 30
0
  0
SPLINE
  5
151
100
AcDbEntity
  8
0
  6
ByLayer
 62
  256
370
   -1
100
AcDbSpline
210
0
220
0
230
0
 70
    8
 71
    3
 72
    8
 73
    4
 74
    0
 42
1e-007
 43
1e-007
 40
0
 40
0
 40
0
 40
0
 40
1
 40
1
 40
1
 40
1
 10
288.1862962241968
 20
-63.73976164188687
 30
0
 10
288.1936876191968
 20
-62.67555888688688
 30
0
 10
286.3466320241968
 20
-61.54605303688687
 30
0
 10
284.8548706541967
 20
-61.56245629188688
 30
0
  0
LWPOLYLINE
  5
152
100
AcDbEntity
  8
0
  6
ByLayer
 62
  256
370
   -1
100
AcDbPolyline
 90
    1
 70
    1
 43
0
 10
280.8088098991967
 20
-62.27480688688689
  0
SPLINE
  5
153
100
AcDbEntity
  8
0
  6
ByLayer
 62
  256
370
   -1
100
AcDbSpline
210
0
220
0
230
0
 70
    8
 71
    3
 72
    8
 73
    4
 74
    0
 42
1e-007
 43
1e-007
 40
0
 40
0
 40
0
 40
0
 40
1
 40
1
 40
1
 40
1
 10
284.9575696791968
 20
-80.22676976188687
 30
0
 10
286.4232859641968
 20
-80.16282401188688
 30
0
 10
288.3900371241967
 20
-80.69889559188688
 30
0
 10
288.3938915791967
 20
-81.41003178688689
 30
0
  0
SPLINE
  5
154
100
AcDbEntity
  8
0
  6
ByLayer
 62
  256
370
   -1
100
AcDbSpline
210
0
220
0
230
0
 70
    8
 71
    3
 72
    8
 73
    4
 74
    0
 42
1e-007
 43
1e-007
 40
0
 40
0
 40
0
 40
0
 40
1
 40
1
 40
1
 40
1
 10
288.3938915791967
 20
-81.41003178688689
 30
0
 10
288.4182200591968
 20
-82.10059781688689
 30
0
 10
286.6102162791967
 20
-83.66085514188687
 30
0
 10
284.8603405141968
 20
-83.63068489188687
 30
0
  0
SPLINE
  5
155
100
AcDbEntity
  8
0
  6
ByLayer
 62
  256
370
   -1
100
AcDbSpline
210
0
220
0
230
0
 70
    8
 71
    3
 72
    8
 73
    4
 74
    0
 42
1e-007
 43
1e-007
 40
0
 40
0
 40
0
 40
0
 40
1
 40
1
 40
1
 40
1
 10
284.8603405141968
 20
-83.63068489188687
 30
0
 10
283.0481091041968
 20
-83.70886189188688
 30
0
 10
281.2710674641968
 20
-82.14618588688687
 30
0
 10
281.2943333441968
 20
-81.60453439188689
 30
0
  0
SPLINE
  5
156
100
AcDbEntity
  8
0
  6
ByLayer
 62
  256
370
   -1
100
AcDbSpline
210
0
220
0
230
0
 70
    8
 71
    3
 72
    8
 73
    4
 74
    0
 42
1e-007
 43
1e-007
 40
0
 40
0
 40
0
 40
0
 40
1
 40
1
 40
1
 40
1
 10
281.2943333441968
 20
-81.60453439188689
 30
0
 10
281.2672117441967
 20
-80.81037371688689
 30
0
 10
283.5009980791967
 20
-80.19032764188687
 30
0
 10
284.9575696791968
 20
-80.22676976188687
 30
0
  0
LWPOLYLINE
  5
157
100
AcDbEntity
  8
0
  6
ByLayer
 62
  256
370
   -1
100
AcDbPolyline
 90
    1
 70
    1
 43
0
 10
284.8548706541967
 20
-61.56245629188688
  0
SPLINE
  5
158
100
AcDbEntity
  8
0
  6
ByLayer
 62
  256
370
   -1
100
AcDbSpline
210
0
220
0
230
0
 70
    8
 71
    3
 72
    8
 73
    4
 74
    0
 42
1e-007
 43
1e-007
 40
0
 40
0
 40
0
 40
0
 40
1
 40
1
 40
1
 40
1
 10
279.5437845991967
 20
-76.01211866188687
 30
0
 10
280.5873185191967
 20
-77.26933511688688
 30
0
 10
281.0630242991967
 20
-79.47811113688688
 30
0
 10
280.1921654091967
 20
-80.12922814188687
 30
0
  0
SPLINE
  5
159
100
AcDbEntity
  8
0
  6
ByLayer
 62
  256
370
   -1
100
AcDbSpline
210
0
220
0
230
0
 70
    8
 71
    3
 72
    8
 73
    4
 74
    0
 42
1e-007
 43
1e-007
 40
0
 40
0
 40
0
 40
0
 40
1
 40
1
 40
1
 40
1
 10
280.1921654091967
 20
-80.12922814188687
 30
0
 10
279.3682860891968
 20
-80.62626941188687
 30
0
 10
277.3675114891968
 20
-80.42157596688688
 30
0
 10
275.9454124041968
 20
-78.37863259188688
 30
0
  0
SPLINE
  5
15A
100
AcDbEntity
  8
0
  6
ByLayer
 62
  256
370
   -1
100
AcDbSpline
210
0
220
0
230
0
 70
    8
 71
    3
 72
    8
 73
    4
 74
    0
 42
1e-007
 43
1e-007
 40
0
 40
0
 40
0
 40
0
 40
1
 40
1
 40
1
 40
1
 10
275.9454124041968
 20
-78.37863259188688
 30
0
 10
274.9863336791968
 20
-76.66434633688689
 30
0
 10
275.1099229141968
 20
-74.91989868688688
 30
0
 10
275.7833216291967
 20
-74.40743074188688
 30
0
  0
SPLINE
  5
15B
100
AcDbEntity
  8
0
  6
ByLayer
 62
  256
370
   -1
100
AcDbSpline
210
0
220
0
230
0
 70
    8
 71
    3
 72
    8
 73
    4
 74
    0
 42
1e-007
 43
1e-007
 40
0
 40
0
 40
0
 40
0
 40
1
 40
1
 40
1
 40
1
 10
275.7833216291967
 20
-74.40743074188688
 30
0
 10
276.7903210841968
 20
-73.79401706188688
 30
0
 10
278.3462293391967
 20
-74.6225604368869
 30
0
 10
279.5438339341968
 20
-76.01211866188687
 30
0
  0
LWPOLYLINE
  5
15C
100
AcDbEntity
  8
0
  6
ByLayer
 62
  256
370
   -1
100
AcDbPolyline
 90
    1
 70
    1
 43
0
 10
284.9575696791968
 20
-80.22676976188687
  0
SPLINE
  5
15D
100
AcDbEntity
  8
0
  6
ByLayer
 62
  256
370
   -1
100
AcDbSpline
210
0
220
0
230
0
 70
    8
 71
    3
 72
    8
 73
    4
 74
    0
 42
1e-007
 43
1e-007
 40
0
 40
0
 40
0
 40
0
 40
1
 40
1
 40
1
 40
1
 10
290.1624602491968
 20
-75.61359559188688
 30
0
 10
289.0333971491967
 20
-76.93609616688688
 30
0
 10
288.4046946791968
 20
-79.34816021688688
 30
0
 10
289.2283513591968
 20
-80.12501569188687
 30
0
  0
SPLINE
  5
15E
100
AcDbEntity
  8
0
  6
ByLayer
 62
  256
370
   -1
100
AcDbSpline
210
0
220
0
230
0
 70
    8
 71
    3
 72
    8
 73
    4
 74
    0
 42
1e-007
 43
1e-007
 40
0
 40
0
 40
0
 40
0
 40
1
 40
1
 40
1
 40
1
 10
289.2283513591968
 20
-80.12501569188687
 30
0
 10
290.0158758441968
 20
-80.72856363688688
 30
0
 10
292.1299729391968
 20
-80.64420078688688
 30
0
 10
293.6916192341968
 20
-78.47734054188687
 30
0
  0
SPLINE
  5
15F
100
AcDbEntity
  8
0
  6
ByLayer
 62
  256
370
   -1
100
AcDbSpline
210
0
220
0
230
0
 70
    8
 71
    3
 72
    8
 73
    4
 74
    0
 42
1e-007
 43
1e-007
 40
0
 40
0
 40
0
 40
0
 40
1
 40
1
 40
1
 40
1
 10
293.6916192341968
 20
-78.47734054188687
 30
0
 10
294.8255690291968
 20
-77.02202508688687
 30
0
 10
294.4456136291967
 20
-74.59163118688689
 30
0
 10
293.7978956791968
 20
-73.94620541688687
 30
0
  0
SPLINE
  5
160
100
AcDbEntity
  8
0
  6
ByLayer
 62
  256
370
   -1
100
AcDbSpline
210
0
220
0
230
0
 70
    8
 71
    3
 72
    8
 73
    4
 74
    0
 42
1e-007
 43
1e-007
 40
0
 40
0
 40
0
 40
0
 40
1
 40
1
 40
1
 40
1
 10
293.7978956791968
 20
-73.94620541688687
 30
0
 10
292.8357240291967
 20
-73.20198694188689
 30
0
 10
291.4544629391968
 20
-74.15442821188688
 30
0
 10
290.1624513941968
 20
-75.61324518688687
 30
0
  0
LWPOLYLINE
  5
161
100
AcDbEntity
  8
0
  6
ByLayer
 62
  256
370
   -1
100
AcDbPolyline
 90
    1
 70
    1
 43
0
 10
279.5438339341968
 20
-76.01211866188687
  0
CIRCLE
  5
162
100
AcDbEntity
  8
0
  6
ByLayer
 62
  256
370
   -1
100
AcDbCircle
 10
44.5
 20
-32
 40
1
  0
CIRCLE
  5
163
100
AcDbEntity
  8
0
  6
ByLayer
 62
  256
370
   -1
100
AcDbCircle
 10
65.5
 20
-32
 40
1
  0
LWPOLYLINE
  5
164
100
AcDbEntity
  8
0
  6
ByLayer
 62
  256
370
   -1
100
AcDbPolyline
 90
    4
 70
    1
 43
0
 10
50.7
 20
-27.7
 10
50.7
 20
-36.3
 10
59.3
 20
-36.3
 10
59.29999999999999
 20
-27.7
  0
CIRCLE
  5
165
100
AcDbEntity
  8
0
  6
ByLayer
 62
  256
370
   -1
100
AcDbCircle
 10
91.40000000000001
 20
-95
 40
1.5
  0
CIRCLE
  5
166
100
AcDbEntity
  8
0
  6
ByLayer
 62
  256
370
   -1
100
AcDbCircle
 10
91.40000000000001
 20
-51
 40
1.5
  0
LWPOLYLINE
  5
167
100
AcDbEntity
  8
0
  6
ByLayer
 62
  256
370
   -1
100
AcDbPolyline
 90
    4
 70
    1
 43
0
 10
86
 20
-96
 10
86
 20
-50
 10
24
 20
-50
 10
24
 20
-96
  0
LWPOLYLINE
  5
168
100
AcDbEntity
  8
0
  6
ByLayer
 62
  256
370
   -1
100
AcDbPolyline
 90
    4
 70
    0
 43
0
 10
53.18772824278688
 20
8.5
 10
45.25
 20
8.5
 10
45.25
 20
23
 10
53.18772824278688
 20
23
  0
LWPOLYLINE
  5
169
100
AcDbEntity
  8
0
  6
ByLayer
 62
  256
370
   -1
100
AcDbPolyline
 90
    4
 70
    0
 43
0
 10
54.46299512851294
 20
8.5
 10
62.25
 20
8.5
 10
62.25
 20
23
 10
54.49943132524797
 20
23
  0
LWPOLYLINE
  5
16A
100
AcDbEntity
  8
0
  6
ByLayer
 62
  256
370
   -1
100
AcDbPolyline
 90
    4
 70
    0
 43
0
 10
71.73335158275327
 20
8
 10
64.90000000000001
 20
8
 10
64.90000000000001
 20
24.8
 10
71.65049567137783
 20
24.8
  0
LWPOLYLINE
  5
16B
100
AcDbEntity
  8
0
  6
ByLayer
 62
  256
370
   -1
100
AcDbPolyline
 90
    4
 70
    0
 43
0
 10
73.18333003182381
 20
8
 10
80.09999999999999
 20
8
 10
80.09999999999999
 20
24.8
 10
73.307613898887
 20
24.8
  0
LWPOLYLINE
  5
16C
100
AcDbEntity
  8
0
  6
ByLayer
 62
  256
370
   -1
100
AcDbPolyline
 90
    4
 70
    0
 43
0
 10
89.68205625387472
 20
8
 10
82.90000000000001
 20
8
 10
82.90000000000001
 20
24.8
 10
89.71410216129341
 20
24.8
  0
LWPOLYLINE
  5
16D
100
AcDbEntity
  8
0
  6
ByLayer
 62
  256
370
   -1
100
AcDbPolyline
 90
    4
 70
    0
 43
0
 10
91.22025980997098
 20
8
 10
98.09999999999999
 20
8
 10
98.09999999999999
 20
24.8
 10
91.18821390255232
 20
24.8
  0
CIRCLE
  5
16E
100
AcDbEntity
  8
0
  6
ByLayer
 62
  256
370
   -1
100
AcDbCircle
 10
259
 20
93
 40
1.4
  0
CIRCLE
  5
16F
100
AcDbEntity
  8
0
  6
ByLayer
 62
  256
370
   -1
100
AcDbCircle
 10
259
 20
35
 40
1.4
  0
CIRCLE
  5
170
100
AcDbEntity
  8
0
  6
ByLayer
 62
  256
370
   -1
100
AcDbCircle
 10
308
 20
93
 40
1.4
  0
CIRCLE
  5
171
100
AcDbEntity
  8
0
  6
ByLayer
 62
  256
370
   -1
100
AcDbCircle
 10
282
 20
93
 40
1.4
  0
CIRCLE
  5
172
100
AcDbEntity
  8
0
  6
ByLayer
 62
  256
370
   -1
100
AcDbCircle
 10
282
 20
35
 40
1.4
  0
CIRCLE
  5
173
100
AcDbEntity
  8
0
  6
ByLayer
 62
  256
370
   -1
100
AcDbCircle
 10
308
 20
35
 40
1.4
  0
CIRCLE
  5
174
100
AcDbEntity
  8
0
  6
ByLayer
 62
  256
370
   -1
100
AcDbCircle
 10
15.32
 20
-95
 40
1.5
  0
CIRCLE
  5
175
100
AcDbEntity
  8
0
  6
ByLayer
 62
  256
370
   -1
100
AcDbCircle
 10
15.32
 20
-51
 40
1.5
  0
ENDSEC
  0
SECTION
  2
OBJECTS
  0
DICTIONARY
  5
C
330
0
100
AcDbDictionary
281
    1
  3
ACAD_GROUP
350
D
  0
DICTIONARY
  5
D
330
C
100
AcDbDictionary
281
    1
  0
ENDSEC
  0
EOF
